<?xml version="1.0" standalone="no"?>
<!DOCTYPE svg PUBLIC "-//W3C//DTD SVG 20010904//EN"
 "http://www.w3.org/TR/2001/REC-SVG-20010904/DTD/svg10.dtd">
<svg version="1.0" xmlns="http://www.w3.org/2000/svg"
 width="1600.000000pt" height="846.000000pt" viewBox="0 0 1600.000000 846.000000"
 preserveAspectRatio="xMidYMid meet">

<g transform="translate(0.000000,846.000000) scale(0.100000,-0.100000)"
fill="#000000" stroke="none">
<path d="M7605 8441 c-166 -47 -354 -207 -491 -417 -73 -112 -168 -294 -214
-412 -88 -227 -138 -533 -125 -767 3 -66 8 -151 10 -190 5 -93 20 -202 56
-424 25 -151 28 -186 17 -196 -7 -7 -78 -57 -158 -111 -721 -487 -1098 -848
-1306 -1249 -75 -144 -118 -268 -141 -402 l-17 -101 -68 -7 c-37 -3 -88 -3
-113 1 -42 6 -45 5 -45 -16 0 -22 1 -22 110 -15 l110 7 0 -83 0 -84 -84 -89
c-45 -49 -88 -86 -93 -83 -6 4 -16 46 -23 94 -6 49 -15 104 -20 123 l-8 35 -1
-31 c-1 -17 4 -57 10 -90 6 -32 15 -90 19 -129 5 -38 18 -99 30 -135 11 -36
36 -112 55 -170 18 -58 36 -112 40 -121 5 -13 -4 -19 -39 -28 -25 -6 -49 -11
-55 -11 -25 0 -134 406 -147 549 l-7 73 33 -7 33 -7 -6 62 c-5 60 -16 79 -44
80 -8 0 -10 -16 -6 -55 4 -38 2 -55 -6 -55 -7 0 -11 20 -12 53 0 28 -5 61 -10
72 -6 14 -8 -3 -5 -54 l5 -73 -45 5 c-25 2 -47 7 -50 10 -3 3 -9 42 -13 88
l-8 84 -3 -85 c-2 -66 -4 -77 -10 -50 -17 80 -40 111 -65 90 -36 -30 -2 -125
49 -138 l31 -8 14 -117 c8 -64 13 -118 10 -120 -2 -2 -25 -7 -51 -10 l-46 -6
-11 82 c-7 45 -15 152 -20 237 l-8 155 -1 -120 c0 -66 5 -171 12 -232 7 -62 9
-113 5 -113 -3 0 -9 15 -12 34 -11 67 -60 110 -84 74 -10 -16 -21 61 -22 155
-1 37 -5 67 -11 67 -20 0 13 -336 51 -520 160 -765 648 -1464 1272 -1824 l49
-28 -30 -32 c-68 -71 -112 -196 -112 -321 0 -193 97 -373 273 -506 250 -190
621 -253 1012 -174 405 82 655 305 715 638 13 66 17 278 6 295 -3 6 -4 29 0
51 4 26 2 46 -6 56 -6 8 -9 19 -5 25 3 5 2 10 -3 10 -11 0 -17 22 -27 93 -6
39 -5 47 9 47 9 0 16 4 16 9 0 5 -8 7 -18 4 -16 -4 -20 6 -30 79 -7 46 -18
119 -26 163 -29 162 -58 356 -55 359 2 2 44 15 94 30 201 62 411 179 547 305
138 128 250 311 299 491 21 75 24 106 23 265 -1 161 -3 190 -27 277 -55 208
-139 350 -289 493 -138 131 -317 229 -513 279 -139 36 -219 46 -372 46 -129 0
-133 1 -133 21 0 20 37 73 97 139 12 13 20 26 18 28 -2 3 -25 -1 -50 -8 -34
-9 -49 -10 -57 -2 -13 13 -15 12 85 38 37 9 70 20 72 24 2 4 -1 23 -7 43 -8
25 -8 47 0 78 6 24 10 44 9 45 -3 3 -151 -25 -186 -35 -19 -6 -36 -9 -38 -7
-4 4 -30 181 -31 212 -1 22 -10 20 243 60 50 8 120 15 156 15 36 0 81 4 100 8
l34 8 -28 13 c-24 12 -66 12 -250 2 -122 -6 -232 -15 -244 -18 -27 -7 -37 13
-46 92 l-6 52 107 80 c317 239 408 317 524 447 253 284 358 529 412 965 44
351 19 643 -80 943 -86 259 -251 497 -367 532 -60 18 -57 18 -132 -4z m248
-703 c60 -26 110 -89 127 -160 8 -32 11 -90 8 -157 -4 -87 -12 -126 -42 -214
-90 -269 -240 -489 -493 -723 -150 -138 -388 -323 -418 -324 -12 -1 -41 168
-55 317 -8 88 -7 142 4 250 16 148 36 224 70 262 11 13 15 21 9 17 -19 -11
-16 6 17 89 141 356 361 613 568 665 52 13 148 2 205 -22z m-867 -2407 c-4 -6
-17 -11 -28 -11 -21 0 -21 1 -3 20 19 21 44 13 31 -9z m46 -256 c15 -93 28
-183 28 -199 0 -30 5 -24 -242 -280 -49 -50 -88 -94 -88 -98 0 -4 -26 -26 -57
-49 -253 -186 -406 -437 -420 -693 -19 -328 173 -627 481 -752 73 -29 231 -63
242 -51 3 2 -32 33 -77 68 -201 157 -234 190 -283 286 -92 182 -68 364 70 544
50 66 119 125 201 175 57 34 210 89 268 96 28 3 30 0 38 -37 6 -36 46 -280
162 -990 19 -121 45 -279 57 -352 13 -73 20 -135 17 -138 -25 -24 -403 -48
-561 -35 -249 21 -540 122 -753 262 -318 209 -515 529 -515 838 0 73 2 80 20
80 25 0 25 8 1 34 -19 20 -19 25 -5 102 36 211 161 444 347 654 155 173 373
357 731 614 117 84 151 96 261 92 l49 -1 28 -170z m557 -971 c308 -77 546
-293 607 -550 23 -97 14 -301 -16 -399 -73 -234 -238 -395 -497 -488 l-72 -26
-5 27 c-3 15 -42 245 -86 512 -44 267 -91 548 -104 625 -14 77 -29 174 -36
215 -6 41 -13 85 -16 98 -4 22 -4 23 63 16 38 -4 110 -17 162 -30z m-2702
-147 c3 -4 13 -59 23 -124 18 -122 61 -293 105 -422 14 -41 25 -75 25 -77 0
-1 -17 -5 -37 -8 -21 -4 -46 -9 -55 -12 -14 -4 -22 13 -48 95 -69 225 -72 262
-23 307 l26 24 -41 0 c-35 0 -42 4 -47 23 -10 44 -25 152 -25 181 0 28 1 29
45 23 26 -2 49 -7 52 -10z m366 -190 c-3 -5 -10 -4 -15 1 -6 6 -7 16 -3 22 6
9 9 9 16 -1 4 -7 5 -17 2 -22z m-598 -67 c28 0 35 -4 39 -22 60 -297 142 -536
270 -784 l73 -140 -48 49 c-35 36 -53 48 -70 45 -41 -5 -36 -43 10 -89 36 -36
45 -40 82 -38 47 4 40 10 128 -123 50 -78 58 -107 11 -43 -43 58 -120 81 -120
35 0 -50 80 -105 139 -95 36 6 37 5 91 -67 77 -102 349 -371 448 -443 82 -60
253 -170 273 -177 19 -6 -1 -78 -26 -94 -29 -19 -42 -13 -200 91 -580 381
-1030 1091 -1156 1820 -24 138 -24 148 1 108 16 -27 26 -33 55 -33z m645 -78
c69 -216 195 -424 358 -590 154 -158 329 -281 557 -392 211 -103 428 -172 635
-201 103 -14 426 -15 530 0 41 5 76 8 78 6 2 -2 21 -106 42 -232 35 -210 37
-228 21 -241 -15 -13 -15 -13 2 -8 9 3 17 4 17 3 0 -2 5 -29 11 -61 8 -43 7
-61 -2 -72 -9 -11 -8 -14 3 -14 11 0 17 -17 22 -60 4 -33 5 -64 1 -69 -3 -5 1
-11 7 -13 10 -4 13 -43 12 -154 0 -133 -3 -159 -28 -239 -37 -123 -76 -186
-167 -277 -88 -88 -186 -141 -329 -180 -74 -19 -108 -22 -260 -22 -159 0 -184
3 -275 28 -105 29 -199 73 -234 110 l-22 23 93 6 c162 11 292 58 380 136 86
76 128 206 94 291 -9 22 -16 62 -16 88 -1 29 -10 66 -25 97 -14 28 -25 61 -25
75 0 19 -9 29 -38 43 -20 9 -58 33 -85 51 -40 29 -80 48 -176 82 -28 9 40 35
78 29 35 -5 35 -5 8 6 -21 8 -26 15 -21 28 4 9 9 33 12 54 4 33 2 37 -19 38
-56 3 -87 -3 -133 -26 l-49 -23 -51 19 c-68 27 -237 116 -313 164 -61 39 -62
41 -69 93 -5 41 -3 57 8 69 13 13 26 7 109 -47 137 -90 402 -217 432 -207 6 2
-18 14 -54 27 -166 61 -409 200 -528 301 -159 136 -337 338 -470 536 -70 105
-194 340 -240 456 -35 87 -96 274 -106 324 -6 31 -6 32 42 38 26 4 53 8 58 10
6 2 28 4 50 4 l40 1 35 -108z m-508 58 c-5 -32 -30 -60 -53 -60 -13 0 -20 10
-25 34 -8 46 1 58 44 54 33 -3 37 -6 34 -28z m58 -140 c11 -47 23 -93 26 -104
5 -16 3 -16 -25 5 -37 27 -55 17 -53 -30 1 -59 58 -131 103 -131 24 0 30 -8
58 -74 17 -41 31 -77 31 -79 0 -3 -14 0 -30 6 -38 15 -53 -2 -38 -43 13 -39
42 -62 84 -69 34 -6 40 -13 99 -121 l64 -115 -51 -17 c-38 -13 -55 -15 -65 -7
-24 20 -168 321 -215 449 -47 127 -108 341 -108 376 0 17 6 19 33 16 22 -2 38
2 46 12 8 9 15 15 17 14 1 -2 12 -41 24 -88z m8 -159 c26 -46 30 -73 7 -51
-18 19 -48 90 -37 90 5 0 18 -17 30 -39z m485 -382 c77 -132 190 -288 285
-396 l81 -92 -46 -25 c-25 -14 -51 -26 -58 -26 -49 0 -444 572 -421 609 3 5
19 11 36 14 16 4 30 11 30 16 0 6 -16 4 -39 -4 -37 -13 -40 -12 -54 8 -18 29
-87 191 -87 205 0 7 12 14 28 18 15 3 36 9 47 13 18 7 27 -5 81 -119 34 -70
86 -170 117 -221z m-247 206 c25 -55 47 -106 47 -114 2 -18 -89 -49 -102 -35
-5 5 -30 59 -55 119 l-45 110 32 12 c64 24 73 17 123 -92z m129 -256 c100
-173 197 -310 309 -439 l57 -64 -22 -17 c-13 -9 -35 -24 -50 -33 l-28 -17 -71
83 c-38 46 -70 88 -70 95 0 6 13 14 29 18 55 12 54 25 -9 110 -33 44 -67 91
-76 104 -17 23 -26 24 -91 5 -19 -5 -28 7 -82 103 -34 59 -60 114 -59 122 3
14 72 41 93 37 5 -2 37 -49 70 -107z m65 -249 c30 -45 60 -86 67 -92 16 -13 8
-28 -16 -28 -17 0 -141 167 -141 190 0 5 8 10 18 10 11 0 38 -31 72 -80z m-54
-15 c31 -47 61 -88 65 -91 22 -13 5 -32 -43 -47 -28 -9 -55 -14 -59 -12 -11 7
-117 168 -121 184 -2 8 16 20 47 31 28 10 51 19 52 19 1 1 28 -37 59 -84z
m137 -185 l38 -50 -35 0 c-32 0 -36 -3 -36 -24 0 -39 62 -81 119 -81 43 0 50
-4 109 -61 34 -34 62 -64 62 -68 0 -3 -13 -6 -29 -6 -57 0 -50 -38 14 -75 44
-27 75 -31 104 -15 15 7 39 -6 121 -64 57 -41 149 -98 204 -127 l99 -54 -52
-12 c-29 -6 -61 -19 -72 -29 -19 -17 -21 -17 -57 0 -57 27 -219 136 -297 200
-108 88 -279 260 -366 369 -44 54 -79 100 -79 103 0 7 82 43 100 43 8 0 32
-22 53 -49z m392 -41 c22 -22 68 -64 103 -92 34 -28 62 -53 62 -56 0 -3 -21
-21 -45 -40 -51 -38 -39 -42 -142 48 -58 50 -63 56 -63 95 0 38 21 86 39 86 4
0 25 -18 46 -41z m-135 -79 c0 -32 -13 -45 -56 -53 -23 -4 -36 -1 -48 12 -23
25 -21 28 31 61 52 33 73 28 73 -20z m121 -86 c35 -30 65 -59 67 -63 2 -5 -15
-23 -37 -40 -38 -30 -66 -39 -73 -23 -1 4 -36 36 -75 71 -40 34 -73 67 -73 72
0 5 15 9 33 9 17 1 43 7 57 15 14 8 28 14 31 15 3 0 34 -25 70 -56z m133 -69
c3 -9 0 -15 -9 -15 -8 0 -15 7 -15 15 0 8 4 15 9 15 5 0 11 -7 15 -15z m-9
-31 c34 -22 31 -50 -7 -74 -41 -25 -63 -25 -94 -1 l-24 19 40 36 c45 41 51 42
85 20z m145 -99 c78 -49 186 -104 295 -149 l37 -16 -22 -30 c-20 -28 -25 -30
-87 -30 -60 0 -75 5 -159 50 -152 81 -270 160 -253 171 8 5 24 9 36 9 12 0 30
11 40 25 10 13 20 25 22 25 2 0 43 -25 91 -55z m520 -143 c0 -16 -41 -52 -58
-52 -9 1 -30 7 -47 14 l-30 14 25 9 c14 6 32 13 40 16 23 9 70 8 70 -1z m-112
-48 c36 -10 25 -22 -24 -26 -51 -4 -59 -1 -43 19 12 14 31 16 67 7z"/>
<path d="M6570 2000 c30 -10 75 -20 100 -24 30 -4 16 2 -40 19 -97 28 -142 32
-60 5z"/>
<path d="M6608 1853 c7 -3 16 -2 19 1 4 3 -2 6 -13 5 -11 0 -14 -3 -6 -6z"/>
<path d="M6685 1835 c28 -7 61 -13 75 -13 l25 0 -25 7 c-14 5 -48 11 -75 14
l-50 6 50 -14z"/>
<path d="M1235 7520 c-66 -10 -127 -19 -135 -20 -26 -1 -39 -15 -34 -36 5 -18
12 -19 69 -16 55 4 66 1 85 -18 l23 -23 -7 -356 c-3 -196 -11 -417 -16 -491
-5 -74 -9 -157 -10 -185 l0 -50 103 -4 c56 -2 158 -4 227 -4 112 0 132 3 195
27 95 37 154 76 223 150 122 131 182 298 182 510 0 270 -110 432 -344 509 -91
29 -395 34 -561 7z m380 -50 c198 -32 323 -152 360 -346 32 -166 9 -388 -55
-513 -42 -85 -114 -155 -198 -194 -60 -28 -78 -31 -182 -35 -63 -2 -133 1
-155 5 l-40 9 2 55 c14 359 23 622 29 801 6 211 7 217 28 221 41 8 152 7 211
-3z"/>
<path d="M14210 7510 c-80 -4 -155 -10 -165 -13 -11 -3 -76 -9 -145 -12 -69
-3 -136 -8 -150 -10 -62 -11 -406 -35 -587 -41 -130 -5 -254 -3 -359 6 -139
11 -167 10 -219 -3 -112 -29 -285 -119 -300 -156 -3 -8 1 -22 10 -30 13 -13
41 -16 163 -14 158 2 609 32 887 60 307 30 616 22 640 -18 6 -8 -11 -49 -24
-59 -4 -3 -28 -36 -54 -75 -25 -38 -57 -83 -69 -98 -13 -16 -38 -47 -56 -70
-107 -134 -222 -261 -502 -557 -96 -102 -204 -216 -239 -255 -36 -38 -132
-137 -214 -218 -170 -170 -164 -145 -63 -254 59 -64 144 -113 196 -113 18 0
94 11 169 24 305 55 1150 113 1769 123 280 5 293 6 303 25 27 50 -11 113 -98
164 -41 24 -53 26 -117 21 -76 -6 -603 -50 -801 -67 -466 -41 -628 -50 -641
-37 -8 8 14 65 33 88 7 8 13 19 13 23 0 23 452 587 613 766 18 19 61 69 97
110 78 89 82 94 294 332 91 102 166 191 166 196 0 16 -85 106 -127 134 -34 24
-49 27 -158 31 -66 3 -185 2 -265 -3z"/>
<path d="M2714 7077 c-95 -54 -155 -152 -220 -357 -32 -98 -34 -101 -29 -50
29 301 31 373 9 394 -23 23 -91 20 -184 -10 -64 -20 -80 -29 -78 -42 4 -17 11
-18 84 -7 32 5 45 3 59 -11 17 -17 17 -34 11 -224 -4 -113 -11 -259 -16 -325
-5 -66 -7 -121 -5 -123 2 -3 29 -1 59 2 l54 7 12 72 c66 402 195 615 326 538
42 -25 57 -18 74 33 13 40 1 77 -32 100 -26 19 -94 20 -124 3z"/>
<path d="M3174 7081 c-94 -23 -196 -111 -247 -214 -106 -217 -51 -463 120
-539 68 -30 171 -26 243 9 54 26 150 112 150 133 0 23 -31 21 -62 -6 -105 -88
-241 -84 -313 10 -53 70 -88 220 -52 230 6 2 57 10 112 19 228 34 340 118 320
240 -16 93 -143 148 -271 118z m71 -65 c37 -16 65 -59 65 -101 0 -73 -72 -124
-213 -150 -49 -9 -91 -14 -94 -11 -9 8 18 108 42 156 29 56 62 88 112 105 48
18 47 18 88 1z"/>
<path d="M3797 7080 c-48 -13 -136 -56 -165 -84 -54 -49 -69 -129 -31 -167 16
-16 30 -19 67 -17 52 3 52 3 30 75 -24 84 22 136 120 136 45 0 67 -5 91 -22
49 -35 61 -68 61 -169 l0 -90 -72 -7 c-88 -8 -137 -19 -203 -47 -71 -29 -103
-54 -136 -106 -24 -38 -29 -57 -29 -106 0 -103 58 -166 153 -166 89 0 157 47
232 157 l42 64 6 -60 c9 -106 64 -161 159 -161 48 0 114 27 141 58 22 25 9 36
-28 22 -63 -24 -115 -8 -141 42 -14 28 -15 61 -9 277 l7 246 -24 45 c-33 61
-73 82 -162 86 -39 2 -88 -1 -109 -6z m163 -405 c0 -28 -37 -112 -70 -159 -37
-55 -111 -106 -152 -106 -46 0 -78 40 -78 95 0 56 19 96 63 129 58 44 237 75
237 41z"/>
<path d="M4784 7081 c-93 -23 -195 -165 -263 -366 -24 -72 -25 -67 -9 147 15
207 11 218 -61 218 -28 0 -86 -11 -130 -25 -65 -21 -81 -30 -81 -45 0 -23 3
-24 69 -8 46 10 53 9 72 -8 21 -19 22 -23 15 -209 -3 -104 -9 -253 -13 -329
l-6 -139 53 6 c29 4 57 11 60 18 4 6 10 41 14 78 8 95 59 269 106 362 46 90
124 179 159 179 12 0 33 -11 46 -25 23 -22 25 -32 25 -112 0 -48 -5 -179 -12
-290 -6 -111 -9 -205 -5 -209 4 -4 30 -3 59 2 l52 9 12 86 c16 109 38 192 74
283 80 203 185 303 246 235 17 -19 19 -34 14 -148 -2 -69 -5 -194 -5 -278 0
-148 1 -152 25 -178 23 -25 30 -27 79 -22 67 7 184 63 190 91 2 16 -1 18 -20
12 -66 -18 -119 -19 -139 -1 -17 16 -20 31 -20 119 0 56 5 162 12 237 14 160
4 231 -40 280 -32 36 -91 47 -146 29 -85 -28 -189 -181 -251 -371 -14 -41 -23
-63 -20 -49 2 14 7 77 11 140 5 92 3 127 -9 171 -26 88 -86 128 -163 110z"/>
<path d="M10375 6624 c-60 -3 -184 -12 -410 -29 -414 -31 -537 -35 -716 -21
-115 8 -115 8 -195 -24 -91 -36 -174 -86 -174 -105 0 -7 7 -16 16 -19 38 -14
268 -3 709 36 369 32 555 27 555 -16 0 -11 -78 -131 -109 -168 -6 -7 -36 -44
-67 -83 -62 -78 -187 -215 -339 -375 -55 -58 -134 -141 -175 -185 -41 -44
-123 -129 -183 -188 l-109 -109 39 -46 c58 -69 126 -112 177 -112 22 0 57 5
76 10 122 35 793 85 1315 98 l280 7 3 34 c6 58 -61 111 -142 111 -25 0 -181
-11 -348 -25 -529 -43 -571 -46 -660 -52 -88 -5 -88 -5 -88 18 0 20 77 150 99
169 3 3 26 32 51 65 48 65 192 239 310 375 169 195 259 297 275 314 11 12 49
55 85 96 36 41 71 81 77 88 17 17 -3 48 -60 95 -40 32 -48 35 -132 39 -50 3
-121 3 -160 2z"/>
<path d="M6318 6433 c-3 -24 -1 -30 11 -28 16 3 16 17 2 44 -6 10 -10 5 -13
-16z"/>
<path d="M6305 6380 c10 -11 20 -20 23 -20 3 0 -3 9 -13 20 -10 11 -20 20 -23
20 -3 0 3 -9 13 -20z"/>
<path d="M6341 6358 c3 -35 15 -57 26 -50 10 7 10 14 0 35 -12 28 -28 36 -26
15z"/>
<path d="M6061 6241 c-7 -5 -12 -14 -10 -20 2 -6 10 -2 17 9 14 22 13 23 -7
11z"/>
<path d="M5810 6171 c0 -6 4 -13 10 -16 6 -3 7 1 4 9 -7 18 -14 21 -14 7z"/>
<path d="M7535 5292 c-16 -1 -68 -7 -115 -13 -65 -9 -80 -14 -62 -20 12 -5 22
-12 22 -16 0 -9 -46 -77 -88 -130 l-33 -41 43 10 c24 5 81 15 128 21 l84 12 9
42 c6 30 17 49 38 64 40 28 110 37 131 16 14 -14 17 -13 37 9 42 48 31 56 -71
52 -51 -2 -106 -4 -123 -6z"/>
<path d="M7577 5093 c-4 -3 -7 -11 -7 -17 0 -6 5 -5 12 2 6 6 9 14 7 17 -3 3
-9 2 -12 -2z"/>
<path d="M7476 5074 c-17 -17 -22 -99 -7 -108 5 -3 22 9 38 28 23 26 29 40 25
65 -5 35 -30 42 -56 15z"/>
<path d="M4971 4144 c0 -11 3 -14 6 -6 3 7 2 16 -1 19 -3 4 -6 -2 -5 -13z"/>
<path d="M4070 3353 c-52 -2 -99 -8 -105 -14 -7 -7 28 -8 111 -3 88 5 123 3
128 -5 8 -12 -40 -74 -131 -171 -79 -83 -74 -91 57 -78 47 4 125 11 174 14 50
3 84 10 79 15 -5 5 -58 4 -123 -1 -63 -5 -118 -6 -123 -1 -5 5 34 59 87 122
52 62 92 117 90 121 -5 8 -38 8 -244 1z"/>
<path d="M12683 2893 c-12 -2 -27 -11 -33 -18 -8 -10 -18 -140 -30 -382 -11
-203 -21 -402 -24 -443 -6 -79 -13 -203 -25 -435 -4 -77 -5 -143 -2 -146 3 -4
28 -4 56 0 45 5 50 9 56 36 74 310 117 416 216 528 69 78 156 102 189 52 47
-71 -60 -195 -216 -251 -27 -10 -50 -23 -50 -28 0 -16 117 -217 159 -272 20
-27 53 -58 73 -69 33 -17 42 -18 85 -7 69 18 178 74 178 92 0 8 -7 13 -15 12
-112 -26 -120 -27 -156 -7 -36 19 -94 93 -153 193 -17 29 -31 57 -31 62 0 5
27 25 60 45 121 74 189 164 190 253 0 63 -22 97 -74 117 -41 16 -48 16 -99 1
-30 -9 -76 -33 -105 -57 -65 -51 -153 -183 -203 -303 l-38 -91 -1 45 c0 87 38
549 71 853 13 116 18 202 13 207 -12 11 -64 18 -91 13z"/>
<path d="M9994 2666 c-100 -19 -114 -25 -114 -47 0 -17 7 -19 69 -19 80 0 96
-11 107 -67 7 -36 -10 -743 -23 -966 l-6 -109 59 7 c32 4 65 12 72 17 8 7 12
39 12 92 0 44 3 172 7 282 l6 202 81 6 c45 3 169 6 276 7 l195 1 0 -259 c0
-253 0 -259 24 -299 26 -45 55 -64 101 -64 43 0 220 59 220 73 -1 30 -14 35
-67 25 -107 -21 -140 18 -150 180 -6 106 11 563 29 790 9 122 9 145 -3 153
-22 14 -82 11 -105 -6 -23 -15 -26 -45 -40 -365 -4 -80 -9 -148 -13 -152 -3
-3 -127 -8 -274 -10 l-269 -4 4 248 c3 242 2 248 -18 269 -28 27 -87 32 -180
15z"/>
<path d="M3263 2603 c9 -2 23 -2 30 0 6 3 -1 5 -18 5 -16 0 -22 -2 -12 -5z"/>
<path d="M3380 2594 c0 -8 -25 -41 -55 -73 -30 -32 -55 -61 -55 -64 0 -4 16
-7 36 -7 23 0 33 4 28 11 -3 6 9 27 28 47 38 40 68 82 68 94 0 5 -11 8 -25 8
-16 0 -25 -6 -25 -16z"/>
<path d="M3428 2463 c12 -2 30 -2 40 0 9 3 -1 5 -23 4 -22 0 -30 -2 -17 -4z"/>
<path d="M11410 2233 c-87 -15 -155 -48 -207 -97 -49 -48 -53 -56 -53 -98 0
-38 5 -50 26 -67 28 -22 78 -27 104 -11 12 8 12 14 -3 45 -33 69 -18 127 38
151 94 39 201 -8 226 -99 6 -22 7 -67 3 -108 l-7 -69 -48 0 c-126 0 -273 -53
-335 -122 -44 -49 -54 -76 -54 -146 0 -131 117 -199 239 -140 55 27 123 94
160 160 l28 49 6 -61 c7 -77 31 -119 87 -148 34 -18 55 -22 88 -18 75 10 158
64 135 87 -8 8 -20 6 -41 -5 -45 -23 -78 -20 -114 13 l-33 29 0 139 c0 76 2
192 5 258 3 106 1 125 -17 160 -25 47 -48 70 -86 84 -34 13 -112 21 -147 14z
m116 -428 c-17 -88 -90 -196 -157 -231 -30 -15 -87 -19 -105 -6 -38 25 -45
116 -13 169 12 18 39 43 61 54 43 22 143 47 192 48 27 1 28 0 22 -34z"/>
<path d="M14462 2229 c-45 -13 -111 -81 -151 -154 -18 -33 -51 -112 -73 -175
l-39 -115 5 70 c3 39 8 131 12 205 6 129 6 136 -14 154 -26 22 -63 19 -176
-14 -61 -18 -76 -27 -76 -42 0 -18 5 -19 63 -13 94 10 91 17 84 -248 -4 -122
-10 -271 -13 -330 l-7 -108 39 6 c86 14 81 9 88 81 9 87 59 278 96 368 68 162
141 215 237 169 34 -16 36 -16 50 3 63 86 -16 176 -125 143z"/>
<path d="M12120 2208 c-37 -14 -73 -40 -111 -78 -166 -166 -193 -448 -57 -596
110 -119 306 -110 426 20 70 75 51 111 -26 48 -128 -106 -262 -73 -334 83 -20
43 -23 66 -22 160 0 122 21 196 72 257 53 63 149 85 209 48 37 -22 48 -54 39
-110 l-6 -40 41 0 c53 0 74 13 88 51 14 40 0 97 -32 127 -59 55 -186 69 -287
30z"/>
<path d="M13597 2210 c-251 -98 -347 -500 -163 -683 53 -53 111 -77 188 -77
55 0 77 6 136 35 69 35 142 101 142 129 0 30 -21 26 -70 -13 -162 -128 -339
-34 -366 195 l-6 50 91 12 c176 24 310 82 346 151 38 74 7 164 -69 200 -55 27
-161 28 -229 1z m130 -60 c22 -13 36 -32 44 -60 17 -55 -4 -99 -64 -135 -44
-25 -155 -54 -209 -55 -35 0 -36 21 -8 106 46 135 149 198 237 144z"/>
<path d="M2815 1910 c-3 -11 -10 -20 -15 -20 -5 0 -18 -13 -30 -30 l-21 -30
22 0 c12 0 20 3 16 6 -3 4 10 26 30 50 25 31 31 44 20 44 -9 0 -19 -9 -22 -20z"/>
</g>
</svg>
