<?xml version="1.0" standalone="no"?>
<!DOCTYPE svg PUBLIC "-//W3C//DTD SVG 20010904//EN"
 "http://www.w3.org/TR/2001/REC-SVG-20010904/DTD/svg10.dtd">
<svg version="1.0" xmlns="http://www.w3.org/2000/svg"
 width="2602.000000pt" height="1041.000000pt" viewBox="0 0 2602.000000 1041.000000"
 preserveAspectRatio="xMidYMid meet">

<g transform="translate(0.000000,1041.000000) scale(0.100000,-0.100000)"
fill="#000000" stroke="none">
<path d="M20426 10103 c-6 -14 -5 -15 5 -6 7 7 10 15 7 18 -3 3 -9 -2 -12 -12z"/>
<path d="M20326 10068 c3 -5 10 -6 15 -3 13 9 11 12 -6 12 -8 0 -12 -4 -9 -9z"/>
<path d="M21324 10055 c-4 -8 -10 -13 -14 -10 -5 3 -11 1 -14 -4 -7 -10 19 -9
30 1 3 4 12 4 19 2 7 -3 16 -1 20 5 4 7 0 8 -11 4 -12 -4 -15 -3 -10 5 4 7 2
12 -4 12 -6 0 -13 -7 -16 -15z"/>
<path d="M20341 10046 c-9 -11 -9 -16 1 -22 7 -4 10 -4 6 1 -4 4 -3 14 3 22 6
7 9 13 6 13 -2 0 -10 -6 -16 -14z"/>
<path d="M21176 10047 c3 -10 9 -15 12 -12 3 3 0 11 -7 18 -10 9 -11 8 -5 -6z"/>
<path d="M20376 10038 c3 -5 10 -6 15 -3 13 9 11 12 -6 12 -8 0 -12 -4 -9 -9z"/>
<path d="M21555 10031 c-3 -5 -2 -12 3 -15 5 -3 9 1 9 9 0 17 -3 19 -12 6z"/>
<path d="M21496 10022 c-3 -5 1 -9 9 -9 8 0 12 4 9 9 -3 4 -7 8 -9 8 -2 0 -6
-4 -9 -8z"/>
<path d="M21760 10020 c-9 -6 -10 -10 -3 -10 6 0 15 5 18 10 8 12 4 12 -15 0z"/>
<path d="M21700 10017 c0 -2 6 -10 14 -16 11 -9 16 -9 22 1 4 7 4 10 -1 6 -4
-4 -14 -3 -22 3 -7 6 -13 9 -13 6z"/>
<path d="M20346 9988 c3 -5 10 -6 15 -3 13 9 11 12 -6 12 -8 0 -12 -4 -9 -9z"/>
<path d="M21747 9979 c7 -7 15 -10 18 -7 3 3 -2 9 -12 12 -14 6 -15 5 -6 -5z"/>
<path d="M21720 9970 c0 -5 -3 -9 -7 -7 -8 2 -13 -6 -13 -22 0 -13 28 -7 43 9
9 11 8 11 -7 0 -17 -14 -18 -13 -12 8 4 12 5 22 2 22 -3 0 -6 -4 -6 -10z"/>
<path d="M20373 9871 c0 -11 5 -18 9 -15 4 3 5 11 1 19 -7 21 -12 19 -10 -4z"/>
<path d="M20765 9842 c-10 -7 -18 -32 -10 -32 2 0 9 9 15 20 12 22 11 24 -5
12z"/>
<path d="M20609 9838 c-8 -15 -3 -45 6 -45 6 0 12 6 12 13 0 7 -5 10 -10 7 -6
-4 -8 0 -4 10 5 13 1 25 -4 15z"/>
<path d="M20649 9828 c-6 -12 -4 -46 2 -42 4 2 5 12 2 22 -6 15 -5 15 10 3 10
-8 19 -12 22 -10 2 3 -5 10 -15 17 -11 7 -21 11 -21 10z"/>
<path d="M21000 9820 c0 -5 5 -10 11 -10 5 0 7 5 4 10 -3 6 -8 10 -11 10 -2 0
-4 -4 -4 -10z"/>
<path d="M20377 9799 c7 -7 15 -10 18 -7 3 3 -2 9 -12 12 -14 6 -15 5 -6 -5z"/>
<path d="M21003 9785 c0 -8 4 -12 9 -9 5 3 6 10 3 15 -9 13 -12 11 -12 -6z"/>
<path d="M20513 9755 c0 -8 4 -12 9 -9 5 3 6 10 3 15 -9 13 -12 11 -12 -6z"/>
<path d="M21025 9761 c-3 -5 -2 -12 3 -15 5 -3 9 1 9 9 0 17 -3 19 -12 6z"/>
<path d="M21440 9766 c0 -2 8 -10 18 -17 15 -13 16 -12 3 4 -13 16 -21 21 -21
13z"/>
<path d="M20484 9730 c0 -13 4 -16 10 -10 7 7 7 13 0 20 -6 6 -10 3 -10 -10z"/>
<path d="M21004 9725 c-9 -9 -7 -15 7 -23 22 -14 32 -3 15 19 -9 13 -14 14
-22 4z"/>
<path d="M21491 9717 c-8 -10 -7 -14 2 -14 8 0 14 6 14 14 0 7 -1 13 -2 13 -2
0 -8 -6 -14 -13z"/>
<path d="M20966 9702 c-3 -5 1 -9 9 -9 8 0 12 4 9 9 -3 4 -7 8 -9 8 -2 0 -6
-4 -9 -8z"/>
<path d="M20403 9662 c1 -14 5 -18 11 -12 7 7 6 14 -1 21 -9 9 -12 7 -10 -9z"/>
<path d="M20488 9663 c6 -2 9 -10 6 -15 -4 -7 -2 -8 5 -4 13 9 5 26 -12 25 -9
0 -8 -2 1 -6z"/>
<path d="M20462 9560 c-9 -15 -9 -21 1 -26 6 -4 9 -4 5 1 -4 4 -3 14 4 22 6 7
9 15 7 18 -3 2 -10 -4 -17 -15z"/>
<path d="M20855 9550 c-4 -6 -12 -7 -18 -4 -7 4 -8 3 -4 -2 5 -5 14 -9 20 -9
7 0 12 -5 12 -12 0 -6 3 -14 7 -18 5 -6 4 19 -2 35 -1 3 -2 8 -1 13 2 10 -7 9
-14 -3z"/>
<path d="M21315 9520 c-16 -7 -17 -9 -3 -9 9 -1 20 4 23 9 7 11 7 11 -20 0z"/>
<path d="M20844 9485 c-9 -9 -7 -15 7 -23 22 -14 32 -3 15 19 -9 13 -14 14
-22 4z"/>
<path d="M21300 9489 c0 -5 5 -7 10 -4 6 3 10 8 10 11 0 2 -4 4 -10 4 -5 0
-10 -5 -10 -11z"/>
<path d="M20430 9481 c0 -6 4 -12 8 -15 5 -3 9 1 9 9 0 8 -4 15 -9 15 -4 0 -8
-4 -8 -9z"/>
<path d="M20806 9462 c-3 -5 1 -9 9 -9 8 0 12 4 9 9 -3 4 -7 8 -9 8 -2 0 -6
-4 -9 -8z"/>
<path d="M21763 9424 c4 -4 1 -14 -6 -23 -11 -14 -10 -15 8 -1 11 8 21 15 23
16 2 1 -5 5 -15 8 -9 4 -14 4 -10 0z"/>
<path d="M18740 9406 c0 -2 8 -10 18 -17 15 -13 16 -12 3 4 -13 16 -21 21 -21
13z"/>
<path d="M18805 9391 c-3 -5 -2 -12 3 -15 5 -3 9 1 9 9 0 17 -3 19 -12 6z"/>
<path d="M21732 9361 c-11 -7 -11 -9 0 -14 9 -3 15 1 15 9 0 8 -1 14 -1 14 -1
0 -7 -4 -14 -9z"/>
<path d="M21149 9343 c-13 -16 -12 -17 4 -4 16 13 21 21 13 21 -2 0 -10 -8
-17 -17z"/>
<path d="M19286 9338 c3 -5 10 -6 15 -3 13 9 11 12 -6 12 -8 0 -12 -4 -9 -9z"/>
<path d="M19333 9323 c0 -9 4 -10 14 -2 7 6 13 12 13 14 0 1 -6 2 -13 2 -8 0
-14 -6 -14 -14z"/>
<path d="M19524 9316 c1 -8 5 -18 8 -22 4 -3 5 1 4 10 -1 8 -5 18 -8 22 -4 3
-5 -1 -4 -10z"/>
<path d="M19583 9320 c-13 -5 -23 -13 -23 -16 0 -4 3 -4 7 -1 3 4 13 1 22 -5
9 -7 13 -8 9 -4 -4 5 -3 15 3 23 13 15 12 15 -18 3z"/>
<path d="M21704 9319 c-3 -6 -1 -16 5 -22 9 -9 10 -7 5 7 -6 15 -4 17 6 11 9
-5 11 -4 6 3 -9 15 -13 15 -22 1z"/>
<path d="M19715 9310 c-3 -6 1 -7 9 -4 18 7 21 14 7 14 -6 0 -13 -4 -16 -10z"/>
<path d="M20695 9310 c-4 -6 -12 -7 -18 -4 -7 4 -8 3 -4 -2 5 -5 14 -9 20 -9
7 0 12 -5 12 -12 0 -6 3 -14 7 -18 5 -6 4 19 -2 35 -1 3 -2 8 -1 13 2 10 -7 9
-14 -3z"/>
<path d="M21095 9269 c-4 -6 -5 -12 -2 -15 2 -3 7 2 10 11 7 17 1 20 -8 4z"/>
<path d="M20684 9245 c-9 -9 -7 -15 7 -23 22 -14 32 -3 15 19 -9 13 -14 14
-22 4z"/>
<path d="M18685 9241 c-9 -15 15 -25 28 -12 9 9 7 10 -7 5 -13 -5 -17 -4 -12
4 4 7 5 12 2 12 -3 0 -7 -4 -11 -9z"/>
<path d="M19848 9233 c6 -2 10 -9 7 -14 -4 -5 1 -6 10 -2 13 5 14 7 3 14 -7 5
-17 8 -23 8 -5 0 -4 -3 3 -6z"/>
<path d="M20646 9222 c-3 -5 1 -9 9 -9 8 0 12 4 9 9 -3 4 -7 8 -9 8 -2 0 -6
-4 -9 -8z"/>
<path d="M19799 9183 c-13 -16 -12 -17 4 -4 9 7 17 15 17 17 0 8 -8 3 -21 -13z"/>
<path d="M21613 9183 c0 -9 4 -10 14 -2 7 6 13 12 13 14 0 1 -6 2 -13 2 -8 0
-14 -6 -14 -14z"/>
<path d="M21737 9175 c-4 -8 -3 -16 1 -19 4 -3 9 4 9 15 2 23 -3 25 -10 4z"/>
<path d="M14362 9155 c-65 -24 -170 -80 -187 -100 -5 -6 -28 -23 -50 -38 -88
-59 -208 -191 -311 -344 -54 -81 -196 -350 -233 -440 -12 -29 -30 -75 -41
-103 -28 -68 -90 -362 -105 -490 -18 -166 -21 -406 -5 -469 6 -25 10 -68 9
-95 -2 -28 1 -76 5 -106 16 -126 38 -272 42 -293 3 -12 9 -60 15 -107 5 -47
14 -113 20 -147 13 -75 20 -65 -121 -158 -58 -38 -111 -75 -118 -82 -8 -8 -60
-43 -115 -79 -56 -37 -109 -73 -117 -81 -8 -8 -58 -45 -111 -81 -52 -37 -113
-82 -135 -99 -21 -18 -77 -63 -123 -100 -46 -38 -115 -94 -154 -126 -95 -77
-349 -328 -417 -412 -30 -37 -76 -92 -102 -123 -25 -30 -55 -71 -66 -91 -10
-20 -47 -80 -81 -134 -88 -139 -136 -243 -176 -387 -58 -206 -69 -278 -69
-455 0 -179 13 -267 69 -463 43 -153 93 -269 171 -390 32 -52 65 -106 73 -120
71 -137 432 -462 615 -554 23 -11 48 -26 56 -34 9 -7 67 -38 130 -69 63 -31
123 -60 133 -66 10 -5 55 -23 100 -40 45 -16 91 -33 102 -38 11 -5 40 -15 65
-21 25 -7 77 -20 115 -31 78 -21 217 -47 337 -64 56 -7 417 -8 468 -1 19 3 53
7 75 10 22 2 52 7 68 11 15 4 27 3 28 -1 0 -5 2 -18 5 -29 2 -11 6 -31 8 -45
11 -62 77 -437 80 -453 3 -12 -3 -21 -17 -27 l-22 -9 22 0 c18 -1 23 -9 29
-38 3 -21 9 -54 14 -74 5 -28 4 -38 -9 -47 -15 -10 -15 -11 0 -11 18 -1 24
-18 35 -98 4 -37 3 -53 -5 -53 -6 0 -11 -4 -11 -10 0 -5 6 -10 14 -10 30 0 35
-239 7 -375 -23 -111 -69 -222 -121 -295 -23 -30 -48 -66 -57 -80 -21 -32
-113 -106 -169 -136 -24 -13 -54 -30 -67 -38 -31 -21 -123 -52 -227 -78 -123
-30 -383 -30 -525 0 -120 25 -241 72 -312 121 -75 52 -70 61 35 62 203 1 366
58 476 165 68 65 92 112 106 202 9 58 9 80 -4 123 -9 29 -16 71 -16 93 0 50
-17 116 -36 136 -7 9 -19 39 -25 67 -10 42 -17 53 -37 58 -14 3 -48 24 -75 45
-59 47 -161 97 -217 106 -22 4 -40 10 -40 13 0 4 16 15 35 24 34 16 39 16 128
-7 50 -13 119 -27 152 -30 l60 -6 -70 16 c-38 9 -104 25 -146 36 l-76 19 13
37 c16 46 17 79 3 88 -31 19 -145 -5 -205 -43 -24 -15 -28 -14 -160 46 -100
46 -186 91 -194 101 -3 3 -31 22 -64 41 -32 19 -70 41 -85 50 -23 14 -26 23
-29 74 -2 33 2 69 8 81 12 21 15 20 121 -51 143 -95 354 -199 519 -255 107
-36 313 -83 305 -70 -3 4 -17 10 -32 12 -53 9 -268 69 -298 82 -16 8 -57 24
-90 37 -102 38 -275 128 -380 197 -103 68 -125 84 -209 156 -148 124 -436 438
-436 474 0 5 -6 15 -14 21 -8 7 -50 65 -93 129 -119 179 -313 583 -342 712 -5
25 -25 99 -44 165 -19 66 -44 179 -56 250 -32 191 -41 228 -35 135 2 -41 18
-140 34 -220 26 -129 45 -199 120 -438 11 -34 20 -66 20 -71 0 -8 -109 -36
-114 -29 -8 10 -59 157 -86 248 -44 151 -57 212 -70 330 -6 58 -13 113 -16
123 -4 14 1 17 34 17 35 0 39 2 36 23 -2 12 -6 43 -9 69 -4 34 -12 50 -30 62
l-25 16 7 -75 c4 -48 2 -75 -4 -75 -11 0 -23 69 -23 131 0 22 -4 39 -8 39 -5
0 -7 -37 -4 -81 l5 -82 -59 8 c-33 4 -60 8 -62 9 -1 2 -6 50 -11 107 l-8 104
-2 -102 c-1 -68 -5 -103 -12 -103 -6 0 -9 6 -6 14 9 22 -23 124 -40 131 -42
15 -57 -53 -25 -115 12 -24 28 -38 52 -46 l35 -12 11 -103 c7 -57 15 -120 19
-140 6 -35 5 -36 -25 -43 -18 -3 -45 -6 -60 -6 -26 0 -27 2 -39 83 -7 45 -15
166 -18 270 -4 116 -10 187 -16 187 -13 0 -1 -315 16 -448 14 -98 7 -122 -12
-45 -23 91 -72 128 -105 81 -16 -22 -16 -21 -17 22 -1 25 -5 90 -9 145 -6 80
-7 68 -3 -60 2 -88 11 -207 19 -265 21 -148 87 -408 140 -558 25 -70 54 -152
63 -183 25 -76 183 -396 260 -524 14 -22 62 -93 108 -157 46 -64 83 -120 83
-124 0 -4 40 -52 88 -108 49 -56 100 -114 113 -130 64 -76 241 -238 354 -324
44 -33 94 -72 110 -85 17 -13 55 -39 85 -56 30 -18 62 -36 70 -41 8 -5 37 -22
63 -38 l48 -28 -33 -35 c-75 -78 -138 -253 -138 -384 0 -266 198 -548 480
-685 47 -22 92 -44 100 -49 17 -9 180 -56 225 -65 17 -3 44 -8 60 -12 17 -3
113 -9 215 -11 310 -8 542 33 760 137 74 35 66 30 157 92 152 103 266 257 323
435 29 89 53 238 48 298 -1 17 -2 60 -2 98 0 37 -4 67 -8 67 -5 0 -6 29 -2 63
6 57 4 65 -12 71 -18 7 -18 8 0 22 19 14 19 14 -1 14 -17 0 -22 8 -27 53 -4
28 -10 62 -13 75 -4 18 -1 25 16 29 28 7 27 20 -1 19 -21 -1 -24 8 -45 129
-21 123 -38 223 -49 290 -2 17 -6 41 -9 55 -3 14 -7 40 -10 59 -3 19 -7 37 -9
40 -2 3 -7 33 -10 66 l-7 60 78 24 c112 35 279 103 350 142 111 61 194 113
216 134 12 12 44 39 71 61 143 114 286 309 354 484 89 225 84 673 -9 906 -73
179 -188 345 -313 449 -33 28 -69 59 -82 71 -12 12 -28 24 -36 28 -15 8 -42
24 -78 47 -84 55 -273 139 -310 139 -10 0 -21 4 -25 9 -3 6 -27 13 -53 17 -26
4 -58 11 -72 16 -13 5 -43 12 -65 14 -22 3 -65 9 -95 14 -30 4 -124 7 -208 7
-83 -1 -152 -1 -152 0 0 1 -7 37 -15 80 -8 43 -22 132 -30 198 -9 66 -26 180
-38 253 -14 78 -19 135 -14 139 5 3 4 8 -2 12 -11 7 -35 123 -46 223 -5 44 -4
48 22 62 16 8 45 29 66 48 20 18 69 56 108 83 39 28 90 66 113 86 22 19 80 65
127 101 108 84 312 284 369 363 24 33 47 62 50 65 25 20 104 144 153 240 109
217 167 404 203 660 19 132 28 654 14 760 -21 156 -79 387 -121 477 -10 24
-19 47 -19 52 0 5 -13 36 -29 68 -16 32 -43 86 -60 121 -37 77 -104 165 -196
258 -57 58 -78 72 -110 77 -68 11 -118 6 -183 -18z m315 -811 c69 -31 126 -89
151 -155 18 -47 21 -72 18 -194 -3 -131 -5 -147 -41 -250 -20 -60 -60 -155
-88 -210 -77 -153 -87 -173 -87 -182 0 -11 -110 -154 -191 -250 -151 -177
-453 -444 -629 -557 -25 -16 -55 -38 -67 -49 -13 -11 -23 -16 -24 -11 0 5 -2
16 -4 24 -35 170 -72 471 -61 508 2 9 7 64 11 122 8 144 45 291 79 319 17 15
22 36 6 26 -18 -11 -10 22 27 112 40 96 112 237 149 293 13 19 24 40 24 46 0
23 106 152 204 249 81 81 116 109 180 139 120 59 240 66 343 20z m-1003 -2819
c12 -61 55 -332 60 -375 3 -25 8 -63 10 -85 3 -22 14 -89 25 -150 11 -60 21
-132 23 -159 l3 -50 -40 -8 c-78 -17 -222 -72 -297 -115 -31 -18 -59 -33 -62
-33 -36 0 -346 -265 -346 -296 0 -7 -4 -14 -8 -16 -35 -14 -179 -263 -198
-343 -14 -59 -34 -219 -34 -271 0 -92 28 -259 53 -319 21 -50 101 -190 121
-211 6 -6 29 -33 51 -59 67 -80 89 -99 215 -176 30 -19 66 -40 79 -48 39 -21
182 -61 241 -67 30 -3 66 -7 80 -10 l25 -4 -21 17 c-12 10 -79 63 -149 118
-203 159 -209 166 -276 305 -43 87 -59 151 -59 235 0 131 67 298 166 413 36
42 156 138 224 179 47 28 196 88 240 96 108 20 110 20 111 -5 0 -13 2 -30 4
-38 1 -8 8 -40 14 -70 6 -30 17 -109 25 -175 8 -66 29 -203 46 -305 36 -211
32 -190 65 -375 56 -319 114 -674 120 -736 l6 -65 -63 -12 c-93 -17 -162 -22
-373 -27 -228 -5 -332 5 -512 51 -263 67 -495 176 -688 325 -134 104 -139 109
-238 227 -108 129 -144 188 -200 332 -59 150 -77 241 -77 388 0 174 16 245
113 513 68 190 369 566 603 755 34 27 90 73 125 102 92 75 269 211 329 252 28
19 63 45 78 58 15 13 52 39 82 59 30 20 87 60 125 89 82 61 169 122 172 120 1
-1 4 -15 7 -31z m586 -1415 c166 -29 249 -57 375 -127 135 -74 189 -113 250
-183 22 -25 46 -52 54 -60 27 -28 97 -145 119 -197 59 -139 55 -477 -7 -632
-42 -104 -71 -148 -169 -259 -49 -55 -167 -152 -186 -152 -3 0 -28 -14 -56
-31 -27 -17 -85 -43 -127 -59 -43 -15 -86 -31 -95 -35 -10 -4 -18 -3 -18 2 0
5 -9 59 -19 119 -11 60 -22 123 -25 139 -4 25 -43 248 -62 360 -3 17 -9 53
-14 80 -5 28 -16 91 -25 140 -46 264 -65 379 -74 460 -6 50 -24 167 -41 260
-16 94 -30 176 -30 183 0 16 15 15 150 -8z m-3054 -195 c6 -2 14 -25 17 -52
33 -258 69 -417 136 -600 l30 -82 -27 -5 c-88 -16 -102 -17 -106 -4 -2 7 -18
60 -36 116 -17 57 -41 142 -52 188 l-21 83 27 41 c14 22 33 40 41 40 8 0 15 6
15 14 0 10 -14 13 -52 12 l-53 -1 -11 75 c-6 41 -14 101 -18 133 l-6 58 52 -6
c29 -4 58 -8 64 -10z m-323 -282 c15 -16 32 -23 59 -23 22 0 40 -5 42 -12 4
-16 22 -105 43 -213 36 -190 194 -593 328 -835 21 -38 26 -53 13 -35 -75 96
-148 130 -148 69 0 -34 46 -100 80 -114 17 -7 45 -9 68 -5 l39 6 42 -65 c22
-36 41 -69 41 -74 0 -5 16 -30 35 -56 20 -25 31 -46 25 -46 -5 0 -10 3 -10 8
0 4 -18 26 -39 50 -40 44 -91 63 -120 43 -23 -15 5 -67 57 -107 46 -35 73 -41
114 -25 21 8 30 2 78 -58 30 -36 73 -91 96 -121 49 -65 264 -276 348 -340 32
-25 77 -62 99 -82 23 -21 45 -38 50 -38 5 0 22 -10 37 -22 29 -24 88 -62 180
-114 49 -28 55 -36 58 -68 3 -29 -2 -41 -25 -61 -15 -13 -34 -25 -42 -25 -8 0
-49 23 -92 50 -43 28 -82 50 -87 50 -5 0 -17 9 -27 20 -10 11 -22 20 -26 20
-21 0 -276 210 -384 317 -153 150 -287 304 -340 390 -11 17 -60 92 -109 165
-97 143 -290 514 -320 613 -10 33 -31 96 -47 140 -63 176 -131 452 -153 615
-5 37 -4 41 5 25 7 -11 21 -30 32 -42z m215 -27 c6 -27 -19 -67 -47 -77 -31
-12 -38 -4 -47 48 -6 41 -6 42 27 46 52 6 63 3 67 -17z m112 -342 c0 -1 -16
14 -35 33 -43 43 -69 41 -73 -7 -6 -74 63 -170 122 -170 29 -1 33 -5 64 -83
18 -45 36 -89 39 -97 6 -12 2 -12 -20 3 -51 33 -73 15 -56 -45 17 -60 61 -94
108 -85 24 5 30 0 60 -56 35 -64 111 -211 111 -214 0 -5 -64 -32 -89 -38 -27
-6 -33 -2 -57 37 -40 62 -134 241 -134 255 0 6 -16 46 -35 88 -78 167 -166
429 -180 531 -4 27 -9 57 -12 67 -4 16 0 17 29 12 26 -5 40 -2 58 13 l25 20
37 -131 c21 -73 37 -133 38 -133z m-38 -21 c30 -46 40 -73 28 -73 -11 0 -46
49 -60 84 -14 38 4 32 32 -11z m483 -293 c28 -52 52 -102 55 -110 28 -82 272
-417 412 -565 21 -22 38 -44 38 -50 0 -11 -21 -26 -79 -58 l-34 -19 -44 49
c-24 26 -52 59 -61 73 -9 14 -44 59 -77 100 -73 89 -165 219 -165 232 0 5 -13
28 -29 51 -27 40 -38 58 -98 164 -14 24 -22 47 -19 51 3 5 26 15 51 22 26 7
42 17 37 22 -5 5 -27 2 -51 -7 -24 -8 -47 -15 -52 -15 -9 0 -59 100 -59 118 0
6 -13 40 -30 75 -36 78 -37 87 -7 88 12 0 38 6 57 12 l35 12 36 -75 c19 -41
57 -118 84 -170z m-217 118 c34 -77 72 -172 72 -183 0 -5 -55 -24 -87 -30 -33
-7 -33 -6 -67 67 -59 129 -87 200 -81 207 5 5 58 19 116 30 3 0 24 -41 47 -91z
m225 -436 c26 -40 47 -76 47 -81 0 -13 193 -264 272 -355 24 -27 44 -52 46
-55 1 -4 -10 -14 -25 -22 -16 -7 -40 -23 -56 -33 l-27 -20 -28 30 c-50 53
-152 172 -152 177 0 2 15 10 33 17 85 32 85 19 7 121 -39 51 -78 107 -87 126
-17 37 -15 37 -109 18 -37 -8 -42 -1 -121 154 -57 112 -60 121 -39 121 8 0 33
9 57 19 l43 19 46 -81 c25 -45 67 -115 93 -155z m-3 -162 c25 -38 60 -90 78
-114 17 -25 29 -47 25 -49 -33 -18 -44 -15 -59 16 -9 18 -44 70 -77 116 -47
65 -57 85 -46 92 25 16 34 10 79 -61z m-27 -70 c41 -58 73 -108 70 -113 -6
-10 -62 -33 -100 -41 -27 -6 -32 -2 -76 62 -26 38 -47 72 -47 76 0 3 -12 24
-26 46 -15 22 -24 43 -21 47 13 12 112 42 119 35 3 -4 40 -54 81 -112z m134
-187 c21 -27 44 -53 52 -59 10 -8 1 -10 -35 -10 -42 1 -49 -2 -51 -19 -5 -38
79 -105 132 -105 14 0 35 5 46 10 10 6 19 7 19 2 0 -11 46 -59 112 -119 l46
-42 -41 -3 c-34 -2 -43 -7 -45 -24 -7 -49 112 -108 171 -86 25 10 34 9 47 -3
9 -8 20 -15 24 -15 3 0 29 -17 56 -37 117 -89 190 -134 340 -209 l44 -22 -39
-7 c-22 -4 -64 -18 -93 -33 -60 -29 -51 -32 -172 46 -134 86 -188 122 -215
148 -17 15 -62 53 -101 84 -71 57 -340 325 -358 358 -5 9 -32 45 -59 80 -27
35 -46 66 -43 70 11 10 88 40 108 41 9 1 34 -20 55 -46z m504 -88 c25 -22 71
-62 103 -88 l57 -49 -48 -44 c-26 -24 -52 -44 -57 -44 -9 0 -89 66 -152 125
-28 27 -34 40 -34 74 0 23 7 58 15 78 l15 36 28 -24 c15 -14 48 -43 73 -64z
m-196 -29 c15 -22 15 -27 1 -55 -13 -25 -23 -30 -58 -33 -39 -3 -40 -4 -17
-12 30 -9 101 8 122 29 12 12 19 9 48 -21 19 -20 58 -54 87 -76 l54 -42 -24
-18 c-13 -11 -40 -30 -61 -44 l-38 -25 -38 38 c-20 21 -76 74 -125 117 -49 44
-86 85 -84 94 2 8 18 23 37 33 19 10 39 23 45 29 16 16 34 12 51 -14z m304
-225 c-3 -6 -10 -7 -18 -2 -7 5 -10 14 -6 21 9 14 29 -2 24 -19z m-16 -25 c22
-17 28 -30 25 -51 -2 -24 -11 -31 -52 -46 -47 -16 -49 -16 -82 5 -18 11 -32
25 -31 29 2 8 98 86 107 86 3 0 18 -10 33 -23z m172 -115 c72 -46 79 -50 175
-97 143 -70 175 -84 188 -84 22 0 22 -20 0 -51 l-23 -31 -85 4 c-66 3 -95 10
-131 29 -25 13 -73 38 -106 56 -32 17 -87 51 -122 75 -35 23 -74 49 -86 55
-12 7 -28 20 -35 28 -10 13 -9 15 9 15 36 0 93 29 98 50 6 22 4 23 118 -49z
m605 -171 c0 -6 -11 -22 -26 -36 -26 -27 -38 -27 -100 -4 -32 12 -30 15 22 34
46 17 104 20 104 6z m-120 -55 c40 -15 30 -21 -42 -28 -57 -5 -65 0 -36 24 24
22 31 22 78 4z m-380 -109 c0 -2 -7 -7 -16 -10 -8 -3 -12 -2 -9 4 6 10 25 14
25 6z m770 -156 c0 -5 -2 -10 -4 -10 -3 0 -8 5 -11 10 -3 6 -1 10 4 10 6 0 11
-4 11 -10z"/>
<path d="M21666 9168 c3 -5 10 -6 15 -3 13 9 11 12 -6 12 -8 0 -12 -4 -9 -9z"/>
<path d="M20574 9156 c1 -8 5 -18 8 -22 4 -3 5 1 4 10 -1 8 -5 18 -8 22 -4 3
-5 -1 -4 -10z"/>
<path d="M21557 9152 c-16 -18 -16 -19 3 -17 11 1 23 5 27 10 5 4 2 4 -6 0
-11 -6 -13 -4 -8 8 8 22 4 21 -16 -1z"/>
<path d="M21650 9156 c0 -2 8 -10 18 -17 15 -13 16 -12 3 4 -13 16 -21 21 -21
13z"/>
<path d="M21689 9123 c-12 -16 -12 -17 2 -6 9 7 20 9 24 5 5 -4 5 -1 1 6 -9
16 -11 15 -27 -5z"/>
<path d="M18836 9118 c3 -4 9 -8 15 -8 5 0 9 4 9 8 0 5 -7 9 -15 9 -8 0 -12
-4 -9 -9z"/>
<path d="M19076 9118 c3 -4 9 -8 15 -8 5 0 9 4 9 8 0 5 -7 9 -15 9 -8 0 -12
-4 -9 -9z"/>
<path d="M19690 9108 c8 -7 15 -19 15 -27 0 -8 7 -16 15 -18 12 -4 13 -3 1 5
-7 5 -11 15 -7 20 4 6 -4 16 -16 22 -19 9 -21 9 -8 -2z"/>
<path d="M19749 9093 c-13 -16 -12 -17 4 -4 9 7 17 15 17 17 0 8 -8 3 -21 -13z"/>
<path d="M21706 9098 c3 -5 10 -6 15 -3 13 9 11 12 -6 12 -8 0 -12 -4 -9 -9z"/>
<path d="M20915 9090 c3 -5 8 -10 11 -10 2 0 4 5 4 10 0 6 -5 10 -11 10 -5 0
-7 -4 -4 -10z"/>
<path d="M21386 9088 c3 -5 10 -6 15 -3 13 9 11 12 -6 12 -8 0 -12 -4 -9 -9z"/>
<path d="M21289 9088 c0 -2 -2 -11 -4 -21 -3 -15 -1 -16 11 -6 7 6 11 15 8 20
-5 9 -13 12 -15 7z"/>
<path d="M20898 9073 c6 -2 9 -10 6 -15 -4 -7 -2 -8 5 -4 13 9 5 26 -12 25 -9
0 -8 -2 1 -6z"/>
<path d="M20535 9040 c4 -7 2 -15 -5 -20 -9 -5 -8 -8 2 -13 17 -6 22 29 6 39
-7 5 -8 2 -3 -6z"/>
<path d="M21725 9041 c-3 -5 -2 -12 3 -15 5 -3 9 1 9 9 0 17 -3 19 -12 6z"/>
<path d="M19605 9019 c-4 -6 -5 -12 -2 -15 2 -3 7 2 10 11 7 17 1 20 -8 4z"/>
<path d="M19630 9023 c0 -7 5 -15 10 -18 6 -4 8 -16 5 -28 -5 -19 -5 -20 5 -4
8 13 7 22 -4 39 -9 12 -16 17 -16 11z"/>
<path d="M18748 9008 c5 -5 16 -8 23 -6 8 3 3 7 -10 11 -17 4 -21 3 -13 -5z"/>
<path d="M21066 9003 c-6 -14 -5 -15 5 -6 7 7 10 15 7 18 -3 3 -9 -2 -12 -12z"/>
<path d="M21693 9003 c0 -9 4 -10 14 -2 7 6 13 12 13 14 0 1 -6 2 -13 2 -8 0
-14 -6 -14 -14z"/>
<path d="M19184 8990 c0 -13 4 -16 10 -10 7 7 7 13 0 20 -6 6 -10 3 -10 -10z"/>
<path d="M20805 8991 c-6 -11 13 -26 22 -17 4 3 1 6 -6 6 -7 0 -9 5 -6 10 3 6
4 10 1 10 -3 0 -7 -4 -11 -9z"/>
<path d="M18749 8985 c-9 -33 7 -50 30 -32 12 10 14 9 7 -8 -5 -15 -4 -17 5
-8 17 17 1 37 -17 22 -13 -11 -19 -2 -15 24 1 8 -8 10 -10 2z"/>
<path d="M19535 8961 c-3 -6 5 -15 17 -21 21 -10 21 -10 6 3 -10 8 -15 17 -11
20 3 4 4 7 0 7 -3 0 -8 -4 -12 -9z"/>
<path d="M19184 8952 c3 -5 0 -13 -6 -15 -9 -4 -10 -6 -1 -6 17 -1 25 16 12
25 -7 4 -9 3 -5 -4z"/>
<path d="M21686 8952 c-3 -5 1 -9 9 -9 8 0 12 4 9 9 -3 4 -7 8 -9 8 -2 0 -6
-4 -9 -8z"/>
<path d="M20853 8921 c0 -11 5 -18 9 -15 4 3 5 11 1 19 -7 21 -12 19 -10 -4z"/>
<path d="M20414 8916 c1 -8 5 -18 8 -22 4 -3 5 1 4 10 -1 8 -5 18 -8 22 -4 3
-5 -1 -4 -10z"/>
<path d="M21691 8911 c-8 -5 -9 -11 -3 -15 5 -3 12 1 16 9 6 17 6 18 -13 6z"/>
<path d="M18745 8900 c-4 -6 -1 -9 7 -8 7 2 12 -3 10 -10 -1 -8 2 -11 8 -7 8
5 7 11 -1 21 -14 17 -16 17 -24 4z"/>
<path d="M19549 8883 c-13 -16 -12 -17 4 -4 9 7 17 15 17 17 0 8 -8 3 -21 -13z"/>
<path d="M19465 8861 c-3 -6 4 -15 15 -21 20 -11 21 -10 10 9 -12 23 -16 25
-25 12z"/>
<path d="M19066 8841 c-3 -5 2 -15 12 -22 15 -12 16 -12 5 2 -7 9 -10 19 -6
22 3 4 4 7 0 7 -3 0 -8 -4 -11 -9z"/>
<path d="M20375 8800 c4 -7 2 -15 -5 -20 -9 -5 -8 -8 2 -13 17 -6 22 29 6 39
-7 5 -8 2 -3 -6z"/>
<path d="M19914 8748 l-19 -23 23 19 c21 18 27 26 19 26 -2 0 -12 -10 -23 -22z"/>
<path d="M20906 8718 c3 -5 10 -6 15 -3 13 9 11 12 -6 12 -8 0 -12 -4 -9 -9z"/>
<path d="M21220 8726 c0 -2 7 -9 15 -16 9 -7 15 -8 15 -2 0 5 -7 12 -15 16 -8
3 -15 4 -15 2z"/>
<path d="M20484 8708 c-4 -7 -4 -10 1 -6 4 4 15 2 24 -5 14 -11 14 -10 2 6
-16 20 -18 21 -27 5z"/>
<path d="M20791 8700 c-13 -11 -18 -20 -13 -20 6 0 14 5 17 10 4 6 10 8 14 6
4 -3 8 1 8 9 0 8 -1 15 -1 15 -1 -1 -12 -10 -25 -20z"/>
<path d="M21092 8707 c-8 -10 -6 -13 11 -14 12 0 16 1 9 4 -6 3 -10 9 -6 14 8
14 -2 11 -14 -4z"/>
<path d="M20943 8695 c0 -8 4 -12 9 -9 5 3 6 10 3 15 -9 13 -12 11 -12 -6z"/>
<path d="M18965 8691 c-6 -11 13 -26 22 -17 4 3 1 6 -6 6 -7 0 -9 5 -6 10 3 6
4 10 1 10 -3 0 -7 -4 -11 -9z"/>
<path d="M20689 8683 c-13 -17 -13 -17 6 -3 11 8 22 16 24 17 2 2 0 3 -6 3 -6
0 -17 -8 -24 -17z"/>
<path d="M20255 8670 c6 -30 16 -40 12 -12 -2 12 -6 24 -10 28 -3 4 -4 -4 -2
-16z"/>
<path d="M18940 8631 c0 -6 4 -13 10 -16 6 -3 7 1 4 9 -7 18 -14 21 -14 7z"/>
<path d="M19286 8632 c-2 -4 2 -16 10 -27 8 -10 14 -14 14 -8 0 7 -5 15 -10
18 -6 4 -8 11 -5 16 4 5 4 9 1 9 -3 0 -7 -3 -10 -8z"/>
<path d="M19889 8618 c-5 -18 -6 -38 -1 -34 7 8 12 36 6 36 -2 0 -4 -1 -5 -2z"/>
<path d="M19846 8588 c3 -5 10 -6 15 -3 13 9 11 12 -6 12 -8 0 -12 -4 -9 -9z"/>
<path d="M19243 8555 c0 -8 4 -12 9 -9 5 3 6 10 3 15 -9 13 -12 11 -12 -6z"/>
<path d="M19865 8560 c-4 -6 -11 -8 -16 -4 -5 3 -8 0 -7 -8 2 -7 -3 -12 -10
-10 -8 1 -11 -2 -7 -9 5 -7 10 -8 18 0 7 7 15 7 26 -1 13 -10 14 -10 4 2 -9
10 -10 17 -2 27 7 7 9 13 6 13 -3 0 -9 -5 -12 -10z"/>
<path d="M19773 8543 c0 -9 4 -10 14 -2 7 6 13 12 13 14 0 1 -6 2 -13 2 -8 0
-14 -6 -14 -14z"/>
<path d="M19665 8520 c-3 -6 1 -7 9 -4 18 7 21 14 7 14 -6 0 -13 -4 -16 -10z"/>
<path d="M19810 8517 c0 -2 6 -10 14 -16 11 -9 16 -9 22 1 4 7 4 10 -1 6 -4
-4 -14 -3 -22 3 -7 6 -13 9 -13 6z"/>
<path d="M18856 8498 c3 -5 10 -6 15 -3 13 9 11 12 -6 12 -8 0 -12 -4 -9 -9z"/>
<path d="M19863 8475 c0 -8 4 -12 8 -9 4 2 10 -2 12 -8 4 -8 6 -9 6 -2 1 6 -5
17 -12 23 -10 8 -14 7 -14 -4z"/>
<path d="M17032 8467 c10 -8 14 -18 10 -22 -4 -5 -1 -5 6 -1 17 10 15 14 -10
26 -21 10 -21 10 -6 -3z"/>
<path d="M18846 8468 c3 -5 10 -6 15 -3 13 9 11 12 -6 12 -8 0 -12 -4 -9 -9z"/>
<path d="M19500 8461 c0 -6 4 -13 10 -16 6 -3 7 1 4 9 -7 18 -14 21 -14 7z"/>
<path d="M17215 8450 c-3 -6 1 -7 9 -4 18 7 21 14 7 14 -6 0 -13 -4 -16 -10z"/>
<path d="M17130 8441 c0 -6 4 -13 10 -16 6 -3 7 1 4 9 -7 18 -14 21 -14 7z"/>
<path d="M17305 8440 c-3 -6 1 -7 9 -4 18 7 21 14 7 14 -6 0 -13 -4 -16 -10z"/>
<path d="M18813 8431 c0 -11 5 -18 9 -15 4 3 5 11 1 19 -7 21 -12 19 -10 -4z"/>
<path d="M18850 8440 c0 -5 5 -10 11 -10 5 0 7 5 4 10 -3 6 -8 10 -11 10 -2 0
-4 -4 -4 -10z"/>
<path d="M19150 8440 c-9 -6 -10 -10 -3 -10 6 0 15 5 18 10 8 12 4 12 -15 0z"/>
<path d="M17646 8422 c-3 -5 1 -9 9 -9 8 0 12 4 9 9 -3 4 -7 8 -9 8 -2 0 -6
-4 -9 -8z"/>
<path d="M17970 8390 c-9 -6 -10 -10 -3 -10 6 0 15 5 18 10 8 12 4 12 -15 0z"/>
<path d="M18781 8386 c-9 -10 -7 -17 6 -27 16 -12 17 -12 6 2 -10 12 -10 18
-1 27 7 7 9 12 6 12 -3 0 -11 -6 -17 -14z"/>
<path d="M18006 8378 c3 -5 10 -6 15 -3 13 9 11 12 -6 12 -8 0 -12 -4 -9 -9z"/>
<path d="M19080 8386 c0 -2 8 -10 18 -17 15 -13 16 -12 3 4 -13 16 -21 21 -21
13z"/>
<path d="M19846 8368 c3 -5 10 -6 15 -3 13 9 11 12 -6 12 -8 0 -12 -4 -9 -9z"/>
<path d="M18067 8359 c7 -7 15 -10 18 -7 3 3 -2 9 -12 12 -14 6 -15 5 -6 -5z"/>
<path d="M18173 8345 c0 -14 3 -27 7 -30 4 -2 6 7 4 21 -3 35 -11 41 -11 9z"/>
<path d="M17100 8231 c-7 -15 -7 -22 2 -27 7 -4 10 -4 6 1 -4 4 -3 16 3 26 5
11 7 19 5 19 -3 0 -10 -9 -16 -19z"/>
<path d="M17465 8211 c-3 -5 -2 -12 3 -15 5 -3 9 1 9 9 0 17 -3 19 -12 6z"/>
<path d="M17339 8183 c-13 -16 -12 -17 4 -4 9 7 17 15 17 17 0 8 -8 3 -21 -13z"/>
<path d="M19788 8193 c6 -2 10 -9 7 -14 -4 -5 1 -6 10 -2 13 5 14 7 3 14 -7 5
-17 8 -23 8 -5 0 -4 -3 3 -6z"/>
<path d="M19840 8190 c-9 -6 -10 -10 -3 -10 6 0 15 5 18 10 8 12 4 12 -15 0z"/>
<path d="M17086 8158 c3 -5 10 -6 15 -3 13 9 11 12 -6 12 -8 0 -12 -4 -9 -9z"/>
<path d="M18036 8156 c6 -15 4 -17 -6 -11 -8 5 -11 4 -6 -3 3 -6 -2 -13 -11
-15 -15 -4 -15 -5 -2 -6 25 -2 45 27 30 42 -10 9 -11 8 -5 -7z"/>
<path d="M18616 8162 c-3 -5 1 -9 9 -9 8 0 12 4 9 9 -3 4 -7 8 -9 8 -2 0 -6
-4 -9 -8z"/>
<path d="M19071 8152 c-8 -14 -5 -18 12 -19 12 0 16 1 10 4 -7 3 -13 9 -13 14
0 4 7 6 15 3 8 -4 15 -4 15 -1 0 15 -31 14 -39 -1z"/>
<path d="M19160 8151 c-7 -15 -7 -19 5 -17 8 1 18 6 22 11 5 4 2 5 -6 0 -11
-6 -13 -4 -8 8 9 23 0 21 -13 -2z"/>
<path d="M18933 8136 l-18 -21 24 20 c13 11 25 19 28 17 3 -2 7 -2 9 1 2 2 -3
4 -11 4 -8 0 -23 -10 -32 -21z"/>
<path d="M18723 8135 c0 -8 4 -12 9 -9 5 3 6 10 3 15 -9 13 -12 11 -12 -6z"/>
<path d="M18825 8140 c6 -9 -8 -14 -28 -11 -5 1 -6 -3 -2 -9 4 -7 12 -7 26 0
17 9 19 30 3 30 -3 0 -2 -4 1 -10z"/>
<path d="M19246 8138 c3 -5 10 -6 15 -3 13 9 11 12 -6 12 -8 0 -12 -4 -9 -9z"/>
<path d="M17576 8122 c-3 -5 1 -9 9 -9 8 0 12 4 9 9 -3 4 -7 8 -9 8 -2 0 -6
-4 -9 -8z"/>
<path d="M17122 8037 c15 -14 24 -28 20 -33 -4 -4 -2 -4 5 -1 15 9 9 42 -8 42
-8 0 -21 4 -29 9 -8 4 -3 -4 12 -17z"/>
<path d="M17106 8003 c-6 -14 -5 -15 5 -6 7 7 10 15 7 18 -3 3 -9 -2 -12 -12z"/>
<path d="M17470 7980 c6 -11 13 -20 16 -20 2 0 0 9 -6 20 -6 11 -13 20 -16 20
-2 0 0 -9 6 -20z"/>
<path d="M17886 7992 c-3 -5 1 -9 9 -9 8 0 12 4 9 9 -3 4 -7 8 -9 8 -2 0 -6
-4 -9 -8z"/>
<path d="M17416 7882 c-3 -5 1 -9 9 -9 8 0 12 4 9 9 -3 4 -7 8 -9 8 -2 0 -6
-4 -9 -8z"/>
<path d="M18215 7809 c-4 -6 -5 -12 -2 -15 2 -3 7 2 10 11 7 17 1 20 -8 4z"/>
<path d="M17695 7790 c-3 -6 1 -7 9 -4 18 7 21 14 7 14 -6 0 -13 -4 -16 -10z"/>
<path d="M18190 7765 c-11 -13 -11 -18 0 -28 10 -9 11 -9 5 2 -4 8 -2 17 6 22
7 4 11 11 8 14 -4 3 -12 -2 -19 -10z"/>
<path d="M17310 7740 c6 -11 13 -20 16 -20 2 0 0 9 -6 20 -6 11 -13 20 -16 20
-2 0 0 -9 6 -20z"/>
<path d="M17623 7725 c0 -8 4 -15 9 -15 4 0 8 4 8 9 0 6 -4 12 -8 15 -5 3 -9
-1 -9 -9z"/>
<path d="M18196 7698 c3 -5 10 -6 15 -3 13 9 11 12 -6 12 -8 0 -12 -4 -9 -9z"/>
<path d="M18144 7645 c-4 -8 -11 -12 -17 -8 -6 3 -7 1 -3 -5 10 -16 14 -15 26
8 6 11 8 20 5 20 -3 0 -8 -7 -11 -15z"/>
<path d="M18173 7653 c4 -3 1 -13 -6 -22 -11 -14 -10 -14 5 -2 16 12 16 31 1
31 -4 0 -3 -3 0 -7z"/>
<path d="M17256 7642 c-3 -5 1 -9 9 -9 8 0 12 4 9 9 -3 4 -7 8 -9 8 -2 0 -6
-4 -9 -8z"/>
<path d="M17838 7578 c-10 -10 -14 -18 -9 -18 10 0 36 29 30 34 -2 1 -12 -6
-21 -16z"/>
<path d="M17456 7575 c4 -8 11 -15 16 -15 6 0 5 6 -2 15 -7 8 -14 15 -16 15
-2 0 -1 -7 2 -15z"/>
<path d="M17764 7569 c-9 -15 12 -17 30 -4 17 13 17 14 -4 12 -12 -1 -24 -5
-26 -8z"/>
<path d="M17452 7536 c7 -8 15 -12 17 -11 5 6 -10 25 -20 25 -5 0 -4 -6 3 -14z"/>
<path d="M18170 7536 c0 -2 8 -10 18 -17 15 -13 16 -12 3 4 -13 16 -21 21 -21
13z"/>
<path d="M17150 7500 c6 -11 13 -20 16 -20 2 0 0 9 -6 20 -6 11 -13 20 -16 20
-2 0 0 -9 6 -20z"/>
<path d="M17556 7508 c3 -5 10 -6 15 -3 13 9 11 12 -6 12 -8 0 -12 -4 -9 -9z"/>
<path d="M17525 7491 c-3 -5 -2 -12 3 -15 5 -3 9 1 9 9 0 17 -3 19 -12 6z"/>
<path d="M17440 7476 c0 -2 8 -10 18 -17 15 -13 16 -12 3 4 -13 16 -21 21 -21
13z"/>
<path d="M17549 7463 c-13 -16 -12 -17 4 -4 9 7 17 15 17 17 0 8 -8 3 -21 -13z"/>
<path d="M16230 7421 c0 -6 4 -13 10 -16 6 -3 7 1 4 9 -7 18 -14 21 -14 7z"/>
<path d="M16114 7404 c-18 -15 -18 -15 2 -5 12 6 25 7 29 3 5 -4 5 -1 1 6 -9
15 -8 15 -32 -4z"/>
<path d="M16378 7409 c6 -7 12 -17 12 -21 0 -11 -23 -6 -33 7 -5 6 -7 4 -5 -5
3 -8 16 -15 31 -15 22 -2 25 1 16 16 -5 10 -15 21 -22 25 -9 5 -9 4 1 -7z"/>
<path d="M16266 7397 c3 -10 9 -15 12 -12 3 3 0 11 -7 18 -10 9 -11 8 -5 -6z"/>
<path d="M17096 7402 c-3 -5 1 -9 9 -9 8 0 12 4 9 9 -3 4 -7 8 -9 8 -2 0 -6
-4 -9 -8z"/>
<path d="M16306 7382 c-2 -4 4 -8 14 -8 10 0 16 4 14 8 -3 4 -9 8 -14 8 -5 0
-11 -4 -14 -8z"/>
<path d="M18163 7335 c0 -8 4 -12 9 -9 5 3 6 10 3 15 -9 13 -12 11 -12 -6z"/>
<path d="M18106 7317 c3 -10 9 -15 12 -12 3 3 0 11 -7 18 -10 9 -11 8 -5 -6z"/>
<path d="M16563 7305 c0 -7 8 -10 19 -7 10 2 18 6 18 7 0 1 -8 5 -18 7 -11 3
-19 0 -19 -7z"/>
<path d="M15926 7282 c-3 -5 1 -9 9 -9 8 0 12 4 9 9 -3 4 -7 8 -9 8 -2 0 -6
-4 -9 -8z"/>
<path d="M16003 7275 c0 -8 4 -12 9 -9 5 3 6 10 3 15 -9 13 -12 11 -12 -6z"/>
<path d="M16030 7286 c0 -2 7 -7 16 -10 8 -3 12 -2 9 4 -6 10 -25 14 -25 6z"/>
<path d="M17461 7277 c-9 -12 -9 -17 0 -23 8 -4 9 -3 5 4 -4 7 -2 12 3 12 6 0
11 -5 11 -12 0 -6 3 -9 6 -5 3 3 2 13 -3 22 -8 14 -11 14 -22 2z"/>
<path d="M17576 7275 c-11 -8 -16 -15 -10 -15 5 0 18 7 28 15 11 8 16 15 10
15 -5 0 -18 -7 -28 -15z"/>
<path d="M17616 7273 c-6 -14 -5 -15 5 -6 7 7 10 15 7 18 -3 3 -9 -2 -12 -12z"/>
<path d="M15555 7252 c-15 -21 -15 -24 -2 -13 16 12 22 8 18 -12 -1 -5 4 -5
10 -2 7 5 7 11 1 17 -6 6 -8 17 -5 24 8 21 0 16 -22 -14z"/>
<path d="M16535 7270 c-3 -5 -3 -10 1 -10 4 0 -1 -9 -11 -20 -17 -18 -17 -20
-2 -14 9 3 17 9 18 13 0 3 2 14 4 24 4 19 -1 22 -10 7z"/>
<path d="M17036 7268 c3 -5 10 -6 15 -3 13 9 11 12 -6 12 -8 0 -12 -4 -9 -9z"/>
<path d="M17181 7267 c-8 -10 -7 -14 2 -14 8 0 14 6 14 14 0 7 -1 13 -2 13 -2
0 -8 -6 -14 -13z"/>
<path d="M17220 7260 c-6 -11 -8 -20 -6 -20 3 0 10 9 16 20 6 11 8 20 6 20 -3
0 -10 -9 -16 -20z"/>
<path d="M17089 7243 c-12 -16 -12 -17 2 -6 9 7 20 9 24 5 5 -4 5 -1 1 6 -9
16 -11 15 -27 -5z"/>
<path d="M16065 7240 c-4 -6 -11 -7 -17 -4 -7 4 -8 2 -4 -5 6 -9 11 -9 22 0
14 11 18 19 10 19 -3 0 -8 -5 -11 -10z"/>
<path d="M16405 7180 c-3 -5 3 -18 15 -30 18 -18 18 -25 -3 -21 -5 1 -6 -3 -2
-9 5 -8 11 -7 21 1 13 10 12 15 -6 31 -11 11 -18 23 -15 29 4 5 4 9 1 9 -3 0
-7 -4 -11 -10z"/>
<path d="M15589 7143 c-13 -16 -12 -17 4 -4 16 13 21 21 13 21 -2 0 -10 -8
-17 -17z"/>
<path d="M15562 7120 c0 -14 2 -19 5 -12 2 6 2 18 0 25 -3 6 -5 1 -5 -13z"/>
<path d="M15629 7127 c0 -1 -2 -10 -4 -20 -3 -15 -1 -16 13 -5 9 7 18 13 20
14 2 1 -4 4 -13 7 -8 4 -15 5 -16 4z"/>
<path d="M15581 7093 c-1 -17 16 -25 25 -12 4 7 3 9 -4 5 -5 -3 -13 0 -15 6
-4 9 -6 10 -6 1z"/>
<path d="M15626 7068 c3 -5 10 -6 15 -3 13 9 11 12 -6 12 -8 0 -12 -4 -9 -9z"/>
<path d="M16280 7010 c-12 -7 -10 -9 7 -7 12 0 19 5 17 9 -6 10 -6 10 -24 -2z"/>
<path d="M16175 6949 c-11 -16 -1 -19 13 -3 7 8 8 14 3 14 -5 0 -13 -5 -16
-11z"/>
<path d="M16196 6934 c-23 -23 -20 -30 4 -9 11 10 20 20 20 22 0 7 -9 2 -24
-13z"/>
<path d="M16211 6917 c-8 -10 -7 -14 2 -14 8 0 14 6 14 14 0 7 -1 13 -2 13 -2
0 -8 -6 -14 -13z"/>
<path d="M16165 6881 c-3 -5 -2 -12 3 -15 5 -3 9 1 9 9 0 17 -3 19 -12 6z"/>
<path d="M15803 6845 c0 -8 4 -12 9 -9 5 3 6 10 3 15 -9 13 -12 11 -12 -6z"/>
<path d="M16616 6848 c3 -4 11 -5 19 -1 21 7 19 12 -4 10 -11 0 -18 -5 -15 -9z"/>
<path d="M12880 6842 c0 -25 21 -62 34 -62 10 0 13 6 10 15 -4 8 -10 12 -15 9
-5 -3 -6 1 -3 9 3 8 -2 20 -11 27 -9 7 -15 8 -15 2z"/>
<path d="M16569 6803 c-13 -16 -12 -17 4 -4 9 7 17 15 17 17 0 8 -8 3 -21 -13z"/>
<path d="M16096 6798 c3 -5 10 -6 15 -3 13 9 11 12 -6 12 -8 0 -12 -4 -9 -9z"/>
<path d="M16610 6791 c0 -6 4 -13 10 -16 6 -3 7 1 4 9 -7 18 -14 21 -14 7z"/>
<path d="M16570 6756 c0 -2 7 -7 16 -10 8 -3 12 -2 9 4 -6 10 -25 14 -25 6z"/>
<path d="M12918 6692 l4 -49 23 21 c23 20 23 21 3 34 -10 8 -17 20 -14 28 3 8
0 14 -7 14 -8 0 -11 -15 -9 -48z"/>
<path d="M16027 6713 c3 -7 6 -13 8 -13 2 0 5 6 8 13 3 8 -1 14 -8 14 -7 0
-11 -6 -8 -14z"/>
<path d="M16549 6713 c-13 -16 -12 -17 4 -4 9 7 17 15 17 17 0 8 -8 3 -21 -13z"/>
<path d="M16556 6678 c3 -5 10 -6 15 -3 13 9 11 12 -6 12 -8 0 -12 -4 -9 -9z"/>
<path d="M16601 6671 c-10 -6 -9 -10 5 -15 16 -6 16 -7 0 -19 -16 -12 -16 -13
2 -13 13 0 18 7 17 23 -1 28 -7 34 -24 24z"/>
<path d="M16420 6656 c7 -7 13 -7 20 0 6 6 3 10 -10 10 -13 0 -16 -4 -10 -10z"/>
<path d="M15941 6634 c6 -7 16 -11 21 -8 11 7 3 17 -18 20 -12 2 -13 -1 -3
-12z"/>
<path d="M16295 6610 c-4 -6 -11 -8 -16 -5 -16 10 -10 -2 9 -16 9 -7 14 -9 10
-5 -4 5 -3 15 3 23 6 7 9 13 6 13 -3 0 -9 -5 -12 -10z"/>
<path d="M16187 6586 c-4 -10 -1 -13 8 -9 8 3 12 9 9 14 -7 12 -11 11 -17 -5z"/>
<path d="M16009 6553 c-13 -16 -12 -17 4 -4 9 7 17 15 17 17 0 8 -8 3 -21 -13z"/>
<path d="M15613 6543 c0 -9 4 -10 14 -2 7 6 13 12 13 14 0 1 -6 2 -13 2 -8 0
-14 -6 -14 -14z"/>
<path d="M15635 6530 c-16 -17 -16 -20 -3 -15 9 4 19 13 22 21 7 19 2 18 -19
-6z"/>
<path d="M16570 6531 c0 -6 4 -13 10 -16 6 -3 7 1 4 9 -7 18 -14 21 -14 7z"/>
<path d="M15652 6514 c-7 -8 -8 -14 -3 -14 10 0 25 19 20 25 -2 1 -10 -3 -17
-11z"/>
<path d="M15915 6510 c-3 -6 1 -7 9 -4 18 7 21 14 7 14 -6 0 -13 -4 -16 -10z"/>
<path d="M15584 6471 c4 -7 -2 -15 -16 -20 -15 -7 -17 -10 -7 -10 23 -1 44 25
28 35 -8 4 -9 3 -5 -5z"/>
<path d="M16579 6453 c-13 -16 -12 -17 4 -4 9 7 17 15 17 17 0 8 -8 3 -21 -13z"/>
<path d="M16223 6393 c0 -6 5 -9 11 -5 6 4 14 7 18 7 19 0 14 11 -6 11 -12 0
-23 -6 -23 -13z"/>
<path d="M16374 6378 l-19 -23 23 19 c21 18 27 26 19 26 -2 0 -12 -10 -23 -22z"/>
<path d="M22993 6130 c-40 -16 -51 -48 -57 -180 -12 -225 -16 -304 -21 -375
-2 -38 -7 -128 -10 -200 -3 -71 -8 -157 -10 -190 -2 -33 -9 -154 -15 -270 -5
-115 -12 -239 -15 -275 -2 -36 -7 -126 -10 -200 -4 -74 -8 -155 -10 -180 -2
-25 -7 -114 -11 -199 l-7 -154 69 7 c117 12 106 0 136 154 93 481 321 851 525
852 57 0 92 -31 100 -87 8 -60 -32 -138 -103 -201 -57 -51 -219 -141 -291
-163 -24 -7 -43 -16 -43 -21 0 -14 146 -272 203 -358 63 -96 142 -177 185
-191 19 -6 53 -8 78 -4 115 17 314 109 314 145 0 30 -15 32 -79 10 -180 -60
-256 -1 -464 362 l-27 47 42 22 c141 72 290 208 335 305 43 95 40 197 -8 258
-61 77 -191 88 -310 25 -163 -86 -342 -337 -440 -618 -17 -50 -33 -90 -34 -89
-1 2 4 80 10 173 7 94 15 211 19 260 12 183 51 650 61 725 7 54 55 521 58 560
2 32 -1 36 -33 47 -41 14 -106 15 -137 3z"/>
<path d="M20070 5794 c-16 -7 -33 -21 -38 -31 -12 -22 -30 -291 -39 -570 -3
-111 -9 -206 -12 -212 -6 -8 -850 -36 -858 -27 -2 1 2 144 8 317 12 342 9 438
-16 476 -37 55 -133 67 -290 34 -170 -35 -175 -37 -175 -74 l0 -33 110 1 c158
0 154 7 158 -228 4 -165 -13 -965 -23 -1147 -2 -41 -7 -149 -11 -239 l-6 -164
23 6 c13 3 56 9 95 13 40 3 76 9 82 13 11 6 17 130 27 496 5 215 14 408 18
411 7 5 246 14 530 20 l327 7 0 -384 c0 -405 5 -461 48 -518 53 -72 121 -85
257 -51 75 19 218 70 231 83 2 2 -1 18 -7 36 -8 24 -16 31 -28 26 -37 -15
-142 -27 -176 -21 -21 4 -50 20 -66 35 -51 52 -54 81 -53 511 1 395 12 682 40
1010 7 96 14 180 14 186 0 13 -82 35 -118 32 -13 -1 -36 -8 -52 -14z"/>
<path d="M665 5594 c-98 -7 -352 -36 -483 -55 -73 -10 -138 -19 -143 -19 -6 0
-9 -17 -7 -37 l3 -38 127 0 c126 0 128 0 155 -28 l28 -28 -1 -257 c-2 -287
-14 -823 -18 -832 -2 -3 -7 -79 -10 -170 -4 -91 -9 -174 -11 -185 -2 -11 -7
-62 -10 -113 -4 -51 -8 -103 -10 -114 -4 -20 -2 -20 108 -14 84 5 133 3 197
-9 105 -20 329 -27 430 -14 592 77 969 528 944 1127 -19 428 -261 681 -731
763 -114 20 -430 32 -568 23z m485 -134 c129 -31 258 -99 338 -179 141 -140
200 -300 207 -561 7 -265 -48 -475 -170 -646 -88 -123 -234 -218 -410 -266
-68 -18 -108 -21 -265 -22 -121 -1 -209 4 -254 13 l-68 14 6 76 c17 219 42
808 51 1196 3 132 8 277 11 322 l6 82 141 3 c174 4 295 -6 407 -32z"/>
<path d="M20940 5087 c-195 -60 -320 -171 -320 -287 0 -80 49 -130 128 -130
34 0 102 17 102 25 0 1 -12 24 -27 50 -34 62 -38 150 -7 192 67 93 258 98 352
10 60 -55 80 -151 65 -302 l-8 -80 -95 -7 c-285 -21 -479 -114 -562 -270 -19
-36 -23 -58 -23 -139 0 -89 2 -99 30 -144 19 -31 49 -61 80 -80 44 -27 56 -30
134 -30 77 0 92 3 140 30 76 42 178 148 237 248 l51 86 0 -78 c0 -119 34 -198
106 -247 95 -64 252 -46 355 40 35 30 36 34 23 55 -8 12 -17 11 -59 -7 -74
-32 -133 -29 -176 8 -53 47 -68 97 -68 225 0 61 3 162 8 225 5 63 9 185 9 270
0 141 -2 160 -23 205 -29 64 -55 91 -117 123 -43 22 -65 26 -155 29 -87 2
-118 -1 -180 -20z m276 -614 c-2 -10 -7 -34 -11 -53 -12 -62 -82 -193 -135
-252 -98 -110 -231 -149 -287 -83 -48 55 -53 156 -14 234 52 102 197 163 404
169 42 2 48 0 43 -15z"/>
<path d="M22206 5094 c-202 -49 -366 -228 -442 -481 -22 -73 -27 -108 -27
-208 0 -103 3 -131 25 -197 60 -181 178 -290 343 -316 73 -12 129 -7 215 18
106 31 203 104 269 204 l25 38 -23 19 -23 19 -58 -53 c-32 -30 -79 -64 -106
-77 -60 -29 -157 -37 -221 -20 -92 26 -178 120 -225 246 -19 51 -22 79 -22
214 0 144 2 161 28 235 67 193 179 286 328 272 113 -10 171 -88 148 -196 -14
-64 -8 -71 60 -71 55 0 103 27 126 71 23 46 15 126 -19 178 -65 98 -240 144
-401 105z"/>
<path d="M24506 5094 c-200 -48 -369 -232 -440 -476 -102 -351 50 -671 344
-728 160 -31 358 56 481 212 30 37 31 40 14 58 -25 27 -32 26 -82 -21 -95 -88
-230 -126 -336 -95 -139 40 -256 228 -257 412 l0 50 124 17 c242 33 399 88
493 171 57 50 82 104 83 177 0 174 -197 278 -424 223z m128 -107 c48 -27 86
-94 86 -149 0 -125 -147 -218 -385 -243 -33 -3 -70 -8 -82 -11 -21 -4 -22 -1
-17 28 22 124 68 243 117 298 83 95 196 126 281 77z"/>
<path d="M25780 5097 c-21 -7 -64 -40 -111 -86 -114 -114 -174 -241 -283 -606
-12 -41 -14 -44 -11 -15 5 53 25 281 34 410 5 63 8 143 7 177 -3 139 -70 154
-330 72 -91 -28 -96 -31 -96 -58 0 -15 2 -30 5 -33 3 -3 31 1 63 8 84 20 128
18 153 -7 22 -22 22 -24 15 -301 -4 -154 -9 -296 -11 -316 -2 -20 -6 -91 -10
-157 -3 -66 -8 -156 -12 -199 l-6 -79 74 7 c110 11 114 13 117 49 10 127 81
439 132 578 41 110 102 227 145 277 73 84 169 105 254 57 42 -25 45 -25 64 -8
68 61 59 178 -16 223 -36 22 -118 25 -177 7z"/>
<path d="M3008 4875 c-87 -32 -175 -113 -253 -235 -59 -91 -96 -172 -162 -355
-29 -82 -51 -136 -49 -120 3 17 8 62 11 100 4 39 8 86 11 105 2 19 11 119 19
222 13 169 13 192 -1 227 -8 22 -26 43 -40 50 -51 23 -158 9 -351 -46 -95 -26
-104 -34 -88 -76 5 -12 16 -12 73 -1 106 21 149 18 177 -11 23 -22 25 -32 25
-112 0 -166 -29 -730 -46 -882 l-6 -54 89 8 c135 10 129 7 137 78 3 34 19 118
35 187 78 337 201 588 331 679 44 30 61 36 119 39 58 4 75 0 120 -23 l53 -26
25 23 c80 75 64 183 -34 224 -41 18 -146 17 -195 -1z"/>
<path d="M3823 4875 c-260 -60 -464 -267 -528 -537 -22 -92 -19 -241 5 -320
37 -121 133 -239 237 -291 223 -113 498 -64 695 124 l73 70 -24 19 c-13 11
-26 20 -30 20 -4 0 -28 -15 -52 -34 -144 -112 -319 -144 -454 -82 -139 63
-244 236 -245 402 l0 41 118 12 c380 41 613 133 676 265 38 81 11 187 -64 248
-83 66 -268 95 -407 63z m144 -106 c105 -51 132 -169 58 -257 -31 -37 -130
-85 -220 -107 -72 -18 -287 -46 -294 -39 -11 10 23 135 53 200 68 145 174 223
305 224 36 0 70 -7 98 -21z"/>
<path d="M4971 4880 c-206 -43 -381 -153 -412 -258 -16 -55 2 -115 43 -145 41
-31 163 -36 206 -8 11 6 8 16 -12 46 -69 101 -53 200 38 248 34 18 58 22 146
22 112 0 161 -15 218 -68 52 -48 67 -94 66 -202 0 -55 -4 -116 -7 -136 l-7
-36 -118 -6 c-265 -15 -477 -90 -586 -208 -67 -72 -91 -135 -84 -223 6 -72 24
-112 74 -160 56 -55 132 -79 231 -74 70 4 93 10 158 42 90 45 205 153 275 259
24 37 44 67 44 67 1 0 1 -37 2 -83 1 -134 50 -217 155 -261 108 -45 276 -16
385 66 28 21 30 26 19 42 -13 17 -16 17 -70 -3 -65 -24 -144 -27 -184 -6 -39
20 -78 69 -91 113 -12 46 -13 216 0 342 35 343 24 451 -56 539 -66 74 -122 94
-269 97 -66 2 -140 -1 -164 -6z m265 -652 c-13 -80 -72 -185 -149 -263 -84
-85 -157 -125 -236 -132 -98 -8 -152 48 -153 156 -1 132 95 218 289 255 99 20
124 23 197 25 l59 1 -7 -42z"/>
<path d="M6731 4879 c-183 -36 -356 -243 -488 -584 -46 -119 -51 -114 -33 30
5 44 16 164 25 267 14 163 14 191 1 221 -36 87 -117 88 -416 4 -79 -22 -85
-25 -82 -48 2 -13 7 -27 10 -31 4 -3 39 0 77 8 138 27 184 14 201 -53 9 -34
-12 -567 -31 -810 -8 -98 -15 -182 -15 -187 0 -8 152 0 198 11 18 4 22 12 22
47 0 128 87 432 171 598 69 136 179 271 251 309 75 38 148 17 184 -53 18 -35
21 -158 9 -318 -4 -52 -15 -209 -24 -349 l-16 -253 85 6 c130 11 127 9 135 74
44 373 232 778 414 894 76 47 162 32 198 -35 23 -41 23 -144 0 -366 -20 -189
-22 -387 -6 -462 8 -34 22 -64 44 -88 33 -35 36 -36 102 -35 81 1 184 30 306
86 64 30 87 46 87 60 0 28 -24 32 -82 12 -30 -10 -85 -18 -124 -18 -84 -1
-108 14 -125 78 -13 48 -6 274 15 461 8 66 13 170 12 230 -2 129 -24 193 -86
249 -50 45 -98 60 -181 54 -205 -15 -386 -224 -534 -619 l-35 -94 6 60 c3 33
10 94 14 135 15 137 6 298 -19 362 -30 76 -90 132 -160 147 -29 6 -55 11 -59
10 -4 -1 -27 -5 -51 -10z"/>
<path d="M9603 3805 c0 -8 4 -12 9 -9 5 3 6 10 3 15 -9 13 -12 11 -12 -6z"/>
<path d="M9720 3800 c-9 -6 -10 -10 -3 -10 6 0 15 5 18 10 8 12 4 12 -15 0z"/>
<path d="M9783 3797 c0 -8 6 -14 14 -14 9 0 10 4 2 14 -6 7 -12 13 -14 13 -1
0 -2 -6 -2 -13z"/>
<path d="M9546 3779 c4 -7 44 0 44 7 0 2 -11 3 -24 2 -14 -1 -23 -5 -20 -9z"/>
<path d="M10334 3739 c-4 -7 -3 -9 4 -5 5 3 13 0 15 -6 4 -9 6 -10 6 -1 1 17
-16 25 -25 12z"/>
<path d="M10521 3729 c5 -11 14 -17 20 -14 15 10 10 22 -11 28 -17 4 -18 2 -9
-14z"/>
<path d="M9582 3715 c4 -4 3 -14 -3 -21 -7 -9 -6 -14 3 -20 7 -4 10 -4 6 1 -4
4 -3 14 3 21 7 9 6 14 -3 20 -7 4 -10 4 -6 -1z"/>
<path d="M10640 3710 c-9 -6 -10 -10 -3 -10 6 0 15 5 18 10 8 12 4 12 -15 0z"/>
<path d="M10605 3679 c-3 -4 2 -6 10 -5 21 3 28 13 10 13 -9 0 -18 -4 -20 -8z"/>
<path d="M10572 3645 c4 -4 3 -14 -4 -22 -8 -11 -7 -12 6 -7 19 7 21 20 4 30
-7 4 -10 4 -6 -1z"/>
<path d="M9946 3597 c3 -10 9 -15 12 -12 3 3 0 11 -7 18 -10 9 -11 8 -5 -6z"/>
<path d="M10005 3601 c-3 -5 -2 -12 3 -15 5 -3 9 1 9 9 0 17 -3 19 -12 6z"/>
<path d="M9580 3590 c-11 -7 -11 -10 -2 -10 8 0 10 -5 6 -12 -4 -7 -3 -9 1 -5
7 6 17 37 12 37 -1 0 -9 -5 -17 -10z"/>
<path d="M9891 3587 c-6 -8 -8 -17 -4 -20 3 -4 1 -7 -4 -7 -6 0 -14 5 -16 10
-3 6 -4 5 -3 -2 3 -15 31 -18 31 -3 0 6 4 16 8 23 11 16 2 15 -12 -1z"/>
<path d="M10520 3587 c0 -2 6 -10 14 -16 11 -9 16 -9 22 1 4 7 4 10 -1 6 -4
-4 -14 -3 -22 3 -7 6 -13 9 -13 6z"/>
<path d="M9739 3543 c-13 -16 -12 -17 4 -4 9 7 17 15 17 17 0 8 -8 3 -21 -13z"/>
<path d="M10416 3518 c3 -4 9 -8 15 -8 5 0 9 4 9 8 0 5 -7 9 -15 9 -8 0 -12
-4 -9 -9z"/>
<path d="M9604 3436 c1 -8 5 -18 8 -22 4 -3 5 1 4 10 -1 8 -5 18 -8 22 -4 3
-5 -1 -4 -10z"/>
<path d="M10345 3421 c-3 -6 4 -15 15 -21 20 -11 21 -10 10 9 -12 23 -16 25
-25 12z"/>
<path d="M9970 3416 c0 -2 8 -10 18 -17 15 -13 16 -12 3 4 -13 16 -21 21 -21
13z"/>
<path d="M9640 3391 c0 -6 4 -13 10 -16 6 -3 7 1 4 9 -7 18 -14 21 -14 7z"/>
<path d="M9956 3382 c-3 -5 1 -9 9 -9 8 0 12 4 9 9 -3 4 -7 8 -9 8 -2 0 -6 -4
-9 -8z"/>
<path d="M9635 3350 c-3 -5 -1 -10 4 -10 6 0 11 5 11 10 0 6 -2 10 -4 10 -3 0
-8 -4 -11 -10z"/>
<path d="M9977 3347 c-3 -8 1 -14 8 -14 7 0 11 6 8 14 -3 7 -6 13 -8 13 -2 0
-5 -6 -8 -13z"/>
<path d="M9941 3307 c-8 -10 -7 -14 2 -14 8 0 14 6 14 14 0 7 -1 13 -2 13 -2
0 -8 -6 -14 -13z"/>
<path d="M10253 3265 c0 -8 4 -12 9 -9 5 3 6 10 3 15 -9 13 -12 11 -12 -6z"/>
<path d="M9880 3266 c0 -2 7 -7 16 -10 8 -3 12 -2 9 4 -6 10 -25 14 -25 6z"/>
<path d="M9809 3143 c-13 -16 -12 -17 4 -4 16 13 21 21 13 21 -2 0 -10 -8 -17
-17z"/>
<path d="M9820 3119 c0 -5 -5 -7 -12 -3 -7 4 -8 3 -4 -4 4 -6 13 -9 21 -6 8 4
12 10 9 15 -7 12 -14 11 -14 -2z"/>
<path d="M10585 3109 c-4 -6 -4 -13 -1 -16 3 -4 6 -1 6 6 0 7 5 9 12 5 7 -4 8
-3 4 4 -9 15 -13 15 -21 1z"/>
<path d="M9764 3088 c-4 -7 -3 -10 1 -5 5 4 19 0 33 -9 13 -9 21 -11 18 -5
-13 21 -44 32 -52 19z"/>
<path d="M10556 3081 c-3 -5 2 -15 12 -22 15 -12 16 -12 5 2 -7 9 -10 19 -6
22 3 4 4 7 0 7 -3 0 -8 -4 -11 -9z"/>
<path d="M9742 3045 c4 -4 3 -14 -3 -21 -7 -8 -7 -14 1 -19 5 -3 10 -5 11 -3
6 27 5 39 -4 45 -7 3 -9 3 -5 -2z"/>
<path d="M10525 3039 c-4 -6 -4 -13 -1 -16 3 -4 6 -1 6 6 0 7 5 9 12 5 7 -4 8
-3 4 4 -9 15 -13 15 -21 1z"/>
<path d="M10645 3019 c-4 -6 -5 -12 -2 -15 2 -3 7 2 10 11 7 17 1 20 -8 4z"/>
<path d="M10490 3005 c-7 -8 -11 -15 -9 -16 37 -7 40 -7 30 5 -6 7 -8 16 -4
19 3 4 4 7 1 7 -3 0 -11 -7 -18 -15z"/>
<path d="M10379 2993 c-13 -17 -13 -17 6 -3 11 8 22 16 24 17 2 2 0 3 -6 3 -6
0 -17 -8 -24 -17z"/>
<path d="M10415 2991 c-3 -5 0 -13 6 -17 7 -4 9 -3 5 4 -3 5 0 13 6 15 9 4 10
6 1 6 -6 1 -14 -3 -18 -8z"/>
<path d="M9936 2952 c-3 -5 1 -9 9 -9 8 0 12 4 9 9 -3 4 -7 8 -9 8 -2 0 -6 -4
-9 -8z"/>
<path d="M10175 2911 c-3 -5 0 -13 6 -17 8 -4 9 -3 5 4 -10 16 6 15 24 0 12
-11 12 -10 1 5 -15 19 -27 22 -36 8z"/>
<path d="M9643 2886 c0 -15 22 -15 34 0 4 5 4 6 -1 2 -5 -4 -14 -3 -21 2 -8 7
-12 5 -12 -4z"/>
<path d="M9616 2875 c-9 -26 -7 -32 5 -12 6 10 9 21 6 23 -2 3 -7 -2 -11 -11z"/>
<path d="M8577 2855 c-4 -8 -1 -17 5 -21 7 -5 8 -2 3 6 -6 10 -4 12 10 6 15
-5 16 -4 5 9 -15 19 -16 19 -23 0z"/>
<path d="M8490 2841 c-7 -14 -7 -22 0 -26 6 -4 10 -3 9 2 -1 4 -1 15 0 23 1
13 2 13 11 0 6 -9 10 -10 10 -3 0 21 -19 24 -30 4z"/>
<path d="M8060 2840 c-9 -6 -10 -10 -3 -10 6 0 15 5 18 10 8 12 4 12 -15 0z"/>
<path d="M8666 2837 c3 -10 9 -15 12 -12 3 3 0 11 -7 18 -10 9 -11 8 -5 -6z"/>
<path d="M9953 2837 c0 -8 6 -14 14 -14 9 0 10 4 2 14 -6 7 -12 13 -14 13 -1
0 -2 -6 -2 -13z"/>
<path d="M8915 2831 c-3 -5 -2 -12 3 -15 5 -3 9 1 9 9 0 17 -3 19 -12 6z"/>
<path d="M8706 2822 c-3 -5 1 -9 9 -9 8 0 12 4 9 9 -3 4 -7 8 -9 8 -2 0 -6 -4
-9 -8z"/>
<path d="M9573 2783 c4 -3 1 -13 -6 -22 -11 -14 -10 -14 5 -2 16 12 16 31 1
31 -4 0 -3 -3 0 -7z"/>
<path d="M10613 2755 c0 -8 4 -12 9 -9 5 3 6 10 3 15 -9 13 -12 11 -12 -6z"/>
<path d="M8436 2721 c-7 -10 29 -44 50 -47 9 -1 13 1 9 4 -4 4 -12 7 -18 7 -7
1 -11 6 -9 13 1 7 -4 11 -10 10 -7 -2 -12 3 -10 10 2 14 -4 16 -12 3z"/>
<path d="M8545 2720 c-4 -6 -12 -7 -18 -4 -7 4 -9 4 -5 -1 4 -4 2 -15 -4 -24
-7 -9 0 -5 15 8 15 14 27 26 27 28 0 7 -9 3 -15 -7z"/>
<path d="M10266 2718 c3 -5 10 -6 15 -3 13 9 11 12 -6 12 -8 0 -12 -4 -9 -9z"/>
<path d="M10370 2716 c7 -7 13 -7 20 0 6 6 3 10 -10 10 -13 0 -16 -4 -10 -10z"/>
<path d="M10515 2719 c-4 -6 -5 -12 -2 -15 2 -3 7 2 10 11 7 17 1 20 -8 4z"/>
<path d="M9009 2703 c-12 -16 -12 -17 2 -6 9 7 20 9 24 5 5 -4 5 -1 1 6 -9 16
-11 15 -27 -5z"/>
<path d="M9959 2703 c-13 -16 -12 -17 4 -4 16 13 21 21 13 21 -2 0 -10 -8 -17
-17z"/>
<path d="M10040 2706 c0 -2 8 -10 18 -17 15 -13 16 -12 3 4 -13 16 -21 21 -21
13z"/>
<path d="M10303 2696 c0 -15 22 -15 34 0 4 5 4 6 -1 2 -5 -4 -14 -3 -21 2 -8
7 -12 5 -12 -4z"/>
<path d="M10163 2687 c0 -8 6 -14 14 -14 9 0 10 4 2 14 -6 7 -12 13 -14 13 -1
0 -2 -6 -2 -13z"/>
<path d="M9966 2681 c-4 -5 -2 -12 3 -15 5 -4 12 -2 15 3 4 5 2 12 -3 15 -5 4
-12 2 -15 -3z"/>
<path d="M8140 2646 c0 -2 8 -10 18 -17 15 -13 16 -12 3 4 -13 16 -21 21 -21
13z"/>
<path d="M8953 2633 c4 -3 1 -13 -6 -22 -11 -14 -10 -14 5 -2 16 12 16 31 1
31 -4 0 -3 -3 0 -7z"/>
<path d="M8095 2621 c-3 -5 -2 -12 3 -15 5 -3 9 1 9 9 0 17 -3 19 -12 6z"/>
<path d="M8186 2597 c3 -10 9 -15 12 -12 3 3 0 11 -7 18 -10 9 -11 8 -5 -6z"/>
<path d="M8902 2596 c10 -7 16 -16 13 -19 -3 -4 -2 -5 2 -2 16 12 9 31 -11 32
-19 2 -20 1 -4 -11z"/>
<path d="M8883 2575 c0 -8 4 -12 9 -9 5 3 6 10 3 15 -9 13 -12 11 -12 -6z"/>
<path d="M8493 2543 c0 -9 4 -10 14 -2 7 6 13 12 13 14 0 1 -6 2 -13 2 -8 0
-14 -6 -14 -14z"/>
<path d="M8515 2530 c-16 -17 -16 -20 -3 -15 9 4 19 13 22 21 7 19 2 18 -19
-6z"/>
<path d="M8532 2514 c-7 -8 -8 -14 -3 -14 10 0 25 19 20 25 -2 1 -10 -3 -17
-11z"/>
<path d="M8456 2508 c3 -5 10 -6 15 -3 13 9 11 12 -6 12 -8 0 -12 -4 -9 -9z"/>
<path d="M8120 2496 c0 -2 8 -10 18 -17 15 -13 16 -12 3 4 -13 16 -21 21 -21
13z"/>
<path d="M8459 2473 c-13 -16 -12 -17 4 -4 16 13 21 21 13 21 -2 0 -10 -8 -17
-17z"/>
<path d="M8723 2395 c0 -8 4 -12 9 -9 5 3 6 10 3 15 -9 13 -12 11 -12 -6z"/>
<path d="M8655 2389 c-11 -16 -1 -19 13 -3 7 8 8 14 3 14 -5 0 -13 -5 -16 -11z"/>
<path d="M8676 2374 c-23 -23 -20 -30 4 -9 11 10 20 20 20 22 0 7 -9 2 -24
-13z"/>
<path d="M8691 2357 c-8 -10 -7 -14 2 -14 8 0 14 6 14 14 0 7 -1 13 -2 13 -2
0 -8 -6 -14 -13z"/>
<path d="M8333 2303 c0 -9 4 -10 14 -2 7 6 13 12 13 14 0 1 -6 2 -13 2 -8 0
-14 -6 -14 -14z"/>
<path d="M8645 2301 c-3 -5 -2 -12 3 -15 5 -3 9 1 9 9 0 17 -3 19 -12 6z"/>
<path d="M9076 2287 c3 -10 9 -15 12 -12 3 3 0 11 -7 18 -10 9 -11 8 -5 -6z"/>
<path d="M8370 2276 c0 -2 8 -10 18 -17 15 -13 16 -12 3 4 -13 16 -21 21 -21
13z"/>
<path d="M8283 2225 c0 -8 4 -12 9 -9 5 3 6 10 3 15 -9 13 -12 11 -12 -6z"/>
<path d="M9055 2229 c-11 -16 -1 -19 13 -3 7 8 8 14 3 14 -5 0 -13 -5 -16 -11z"/>
<path d="M9076 2214 c-23 -23 -20 -30 4 -9 11 10 20 20 20 22 0 7 -9 2 -24
-13z"/>
<path d="M9091 2197 c-8 -10 -7 -14 2 -14 8 0 14 6 14 14 0 7 -1 13 -2 13 -2
0 -8 -6 -14 -13z"/>
<path d="M8500 2150 c10 -19 6 -24 -13 -21 -5 1 -6 -3 -2 -9 13 -21 36 9 24
31 -5 10 -12 19 -15 19 -2 0 0 -9 6 -20z"/>
<path d="M8920 2156 c0 -2 7 -7 16 -10 8 -3 12 -2 9 4 -6 10 -25 14 -25 6z"/>
<path d="M8885 2140 c-3 -6 1 -7 9 -4 18 7 21 14 7 14 -6 0 -13 -4 -16 -10z"/>
<path d="M8797 2098 c2 -5 10 -8 18 -8 8 0 16 3 18 8 3 4 -5 7 -18 7 -13 0
-21 -3 -18 -7z"/>
<path d="M8224 2086 c1 -8 5 -18 8 -22 4 -3 5 1 4 10 -1 8 -5 18 -8 22 -4 3
-5 -1 -4 -10z"/>
<path d="M8409 2072 c5 -9 16 -17 25 -18 9 -1 14 2 10 7 -3 5 -10 6 -16 3 -7
-5 -9 -2 -6 8 4 8 0 15 -8 15 -9 0 -10 -5 -5 -15z"/>
<path d="M8204 2045 c-9 -9 -7 -15 7 -23 22 -14 32 -3 15 19 -9 13 -14 14 -22
4z"/>
<path d="M8600 2050 c-9 -6 -10 -10 -3 -10 6 0 15 5 18 10 8 12 4 12 -15 0z"/>
<path d="M8700 2040 c-9 -6 -10 -10 -3 -10 6 0 15 5 18 10 8 12 4 12 -15 0z"/>
<path d="M8503 2023 c0 -6 5 -9 11 -5 6 4 14 7 18 7 19 0 14 11 -6 11 -12 0
-23 -6 -23 -13z"/>
<path d="M9066 2023 c-6 -14 -5 -15 5 -6 7 7 10 15 7 18 -3 3 -9 -2 -12 -12z"/>
<path d="M8166 2022 c-3 -5 1 -9 9 -9 8 0 12 4 9 9 -3 4 -7 8 -9 8 -2 0 -6 -4
-9 -8z"/>
<path d="M6936 1953 c-6 -14 -5 -15 5 -6 7 7 10 15 7 18 -3 3 -9 -2 -12 -12z"/>
<path d="M8085 1951 c-3 -5 -2 -12 3 -15 5 -3 9 1 9 9 0 17 -3 19 -12 6z"/>
<path d="M7615 1909 c-11 -16 -1 -19 13 -3 7 8 8 14 3 14 -5 0 -13 -5 -16 -11z"/>
<path d="M7545 1884 c-18 -16 -22 -22 -9 -15 18 9 53 42 43 41 -2 -1 -17 -12
-34 -26z"/>
<path d="M7690 1901 c0 -6 4 -13 10 -16 6 -3 7 1 4 9 -7 18 -14 21 -14 7z"/>
<path d="M7625 1839 c-4 -6 -4 -13 -1 -16 3 -4 6 -1 6 6 0 7 5 9 12 5 7 -4 8
-3 4 4 -9 15 -13 15 -21 1z"/>
<path d="M8561 1837 c-8 -10 -7 -14 2 -14 8 0 14 6 14 14 0 7 -1 13 -2 13 -2
0 -8 -6 -14 -13z"/>
<path d="M8096 1818 c3 -4 9 -8 15 -8 5 0 9 4 9 8 0 5 -7 9 -15 9 -8 0 -12 -4
-9 -9z"/>
<path d="M8058 1809 c6 -9 9 -18 6 -22 -3 -3 1 -4 10 -3 8 1 18 5 21 9 3 4 2
5 -2 2 -3 -3 -16 3 -27 12 -15 14 -18 14 -8 2z"/>
<path d="M8216 1808 c3 -5 10 -6 15 -3 13 9 11 12 -6 12 -8 0 -12 -4 -9 -9z"/>
<path d="M7183 1725 c0 -8 4 -12 9 -9 5 3 6 10 3 15 -9 13 -12 11 -12 -6z"/>
<path d="M7540 1730 c0 -5 5 -10 11 -10 5 0 7 5 4 10 -3 6 -8 10 -11 10 -2 0
-4 -4 -4 -10z"/>
<path d="M7150 1685 c-7 -9 -11 -17 -9 -20 3 -2 10 5 17 15 14 24 10 26 -8 5z"/>
<path d="M7183 1665 c0 -8 4 -12 9 -9 5 3 6 10 3 15 -9 13 -12 11 -12 -6z"/>
<path d="M7443 1665 c0 -8 4 -12 9 -9 5 3 6 10 3 15 -9 13 -12 11 -12 -6z"/>
<path d="M6816 1652 c-3 -5 1 -9 9 -9 8 0 12 4 9 9 -3 4 -7 8 -9 8 -2 0 -6 -4
-9 -8z"/>
<path d="M7119 1623 c-13 -16 -12 -17 4 -4 16 13 21 21 13 21 -2 0 -10 -8 -17
-17z"/>
<path d="M7066 1543 c-6 -14 -5 -15 5 -6 7 7 10 15 7 18 -3 3 -9 -2 -12 -12z"/>
<path d="M7320 1506 c0 -2 8 -10 18 -17 15 -13 16 -12 3 4 -13 16 -21 21 -21
13z"/>
<path d="M7705 1501 c-3 -5 -2 -12 3 -15 5 -3 9 1 9 9 0 17 -3 19 -12 6z"/>
<path d="M7300 1491 c0 -5 7 -12 16 -15 14 -5 15 -4 4 9 -14 17 -20 19 -20 6z"/>
<path d="M6990 1445 c-7 -9 -11 -17 -9 -20 3 -2 10 5 17 15 14 24 10 26 -8 5z"/>
<path d="M7023 1425 c0 -8 4 -12 9 -9 5 3 6 10 3 15 -9 13 -12 11 -12 -6z"/>
<path d="M7217 1409 c4 -13 8 -18 11 -10 2 7 -1 18 -6 23 -8 8 -9 4 -5 -13z"/>
<path d="M7683 1397 c0 -8 6 -14 14 -14 9 0 10 4 2 14 -6 7 -12 13 -14 13 -1
0 -2 -6 -2 -13z"/>
<path d="M6959 1383 c-13 -16 -12 -17 4 -4 16 13 21 21 13 21 -2 0 -10 -8 -17
-17z"/>
<path d="M7613 1343 c0 -9 4 -10 14 -2 7 6 13 12 13 14 0 1 -6 2 -13 2 -8 0
-14 -6 -14 -14z"/>
<path d="M7156 1334 c-18 -17 -21 -28 -7 -20 5 4 11 1 13 -5 2 -7 9 -5 17 5
10 11 10 16 2 16 -7 0 -9 5 -6 10 9 15 -2 12 -19 -6z"/>
<path d="M7685 1340 c6 -10 4 -12 -11 -6 -15 6 -17 5 -6 -5 9 -9 15 -10 23 -2
8 8 7 13 -2 18 -8 6 -10 4 -4 -5z"/>
<path d="M6914 1318 l-19 -23 23 19 c21 18 27 26 19 26 -2 0 -12 -10 -23 -22z"/>
<path d="M6941 1317 c-8 -10 -7 -14 2 -14 8 0 14 6 14 14 0 7 -1 13 -2 13 -2
0 -8 -6 -14 -13z"/>
<path d="M7665 1300 c10 -11 20 -20 23 -20 3 0 -3 9 -13 20 -10 11 -20 20 -23
20 -3 0 3 -9 13 -20z"/>
<path d="M7556 1301 c-3 -4 4 -7 14 -6 27 2 33 10 10 12 -11 1 -22 -2 -24 -6z"/>
<path d="M7139 1273 c-13 -16 -12 -17 4 -4 9 7 17 15 17 17 0 8 -8 3 -21 -13z"/>
<path d="M5804 1239 c-3 -6 -1 -16 5 -22 9 -9 10 -7 5 7 -6 15 -4 17 6 11 9
-5 11 -4 6 3 -9 15 -13 15 -22 1z"/>
<path d="M5870 1241 c0 -10 19 -25 25 -20 1 2 -3 10 -11 17 -8 7 -14 8 -14 3z"/>
<path d="M7295 1240 c-3 -6 1 -7 9 -4 18 7 21 14 7 14 -6 0 -13 -4 -16 -10z"/>
<path d="M5424 1232 c4 -3 14 -7 22 -8 9 -1 13 0 10 4 -4 3 -14 7 -22 8 -9 1
-13 0 -10 -4z"/>
<path d="M5510 1219 c0 -5 5 -7 10 -4 6 3 10 8 10 11 0 2 -4 4 -10 4 -5 0 -10
-5 -10 -11z"/>
<path d="M5625 1220 c-3 -6 1 -7 9 -4 18 7 21 14 7 14 -6 0 -13 -4 -16 -10z"/>
<path d="M6254 1184 c1 -8 4 -15 7 -16 2 -2 3 -1 2 1 -2 2 2 9 7 16 7 8 5 12
-4 12 -8 0 -13 -6 -12 -13z"/>
<path d="M6864 1192 c3 -5 0 -13 -6 -15 -9 -4 -10 -6 -1 -6 17 -1 25 16 12 25
-7 4 -9 3 -5 -4z"/>
<path d="M7050 1165 c0 -7 30 -13 34 -7 3 4 -4 9 -15 9 -10 1 -19 0 -19 -2z"/>
<path d="M5823 1101 c0 -11 5 -18 9 -15 4 3 5 11 1 19 -7 21 -12 19 -10 -4z"/>
<path d="M6170 1105 c-11 -13 -10 -14 6 -9 18 7 18 6 -1 -17 -11 -13 -13 -18
-4 -11 9 6 19 9 22 6 4 -4 4 4 2 16 -6 31 -10 33 -25 15z"/>
<path d="M5595 1099 c-3 -4 2 -6 10 -5 21 3 28 13 10 13 -9 0 -18 -4 -20 -8z"/>
<path d="M5711 1107 c2 -1 13 -9 24 -17 19 -14 19 -14 6 3 -7 9 -18 17 -24 17
-6 0 -8 -1 -6 -3z"/>
<path d="M7631 1067 c-8 -10 -7 -14 2 -14 8 0 14 6 14 14 0 7 -1 13 -2 13 -2
0 -8 -6 -14 -13z"/>
<path d="M5809 1053 c-13 -16 -12 -17 4 -4 9 7 17 15 17 17 0 8 -8 3 -21 -13z"/>
<path d="M6100 1041 c0 -7 -5 -9 -12 -5 -7 5 -8 3 -3 -5 5 -9 10 -10 18 -2 6
6 8 14 4 18 -4 3 -7 1 -7 -6z"/>
<path d="M6806 1042 c-3 -5 1 -9 9 -9 8 0 12 4 9 9 -3 4 -7 8 -9 8 -2 0 -6 -4
-9 -8z"/>
<path d="M7296 1038 c3 -5 10 -6 15 -3 13 9 11 12 -6 12 -8 0 -12 -4 -9 -9z"/>
<path d="M5815 1021 c-3 -5 -2 -12 3 -15 5 -3 9 1 9 9 0 17 -3 19 -12 6z"/>
<path d="M6745 1020 c-3 -6 1 -7 9 -4 18 7 21 14 7 14 -6 0 -13 -4 -16 -10z"/>
<path d="M6020 960 c-9 -6 -10 -10 -3 -10 6 0 15 5 18 10 8 12 4 12 -15 0z"/>
<path d="M6007 929 c7 -7 15 -10 18 -7 3 3 -2 9 -12 12 -14 6 -15 5 -6 -5z"/>
<path d="M5715 911 c-3 -5 -2 -12 3 -15 5 -3 9 1 9 9 0 17 -3 19 -12 6z"/>
<path d="M5974 868 c-3 -4 -2 -13 2 -19 4 -8 -1 -9 -17 -5 -20 6 -21 5 -6 -4
22 -14 38 -5 30 17 -4 10 -2 14 5 9 6 -3 13 -3 16 2 3 5 -2 9 -10 9 -8 0 -17
-4 -20 -9z"/>
<path d="M5721 833 c-1 -17 16 -25 25 -12 4 7 3 9 -4 5 -5 -3 -13 0 -15 6 -4
9 -6 10 -6 1z"/>
<path d="M6266 742 c-3 -5 1 -9 9 -9 8 0 12 4 9 9 -3 4 -7 8 -9 8 -2 0 -6 -4
-9 -8z"/>
<path d="M5783 685 c0 -8 4 -12 9 -9 5 3 6 10 3 15 -9 13 -12 11 -12 -6z"/>
<path d="M6254 685 c1 -8 6 -18 11 -22 4 -5 5 -2 0 6 -6 11 -4 13 8 8 23 -9
21 0 -2 13 -15 7 -19 7 -17 -5z"/>
<path d="M5806 673 c-6 -14 -5 -15 5 -6 7 7 10 15 7 18 -3 3 -9 -2 -12 -12z"/>
<path d="M6275 649 c-4 -6 -5 -12 -2 -15 2 -3 7 2 10 11 7 17 1 20 -8 4z"/>
<path d="M5987 609 c7 -7 15 -10 18 -7 3 3 -2 9 -12 12 -14 6 -15 5 -6 -5z"/>
<path d="M6026 608 c3 -5 10 -6 15 -3 13 9 11 12 -6 12 -8 0 -12 -4 -9 -9z"/>
<path d="M5900 596 c0 -3 9 -10 19 -16 15 -7 22 -7 27 2 4 7 4 10 -1 6 -4 -4
-16 -3 -26 3 -11 5 -19 7 -19 5z"/>
<path d="M5850 586 c0 -2 7 -7 16 -10 8 -3 12 -2 9 4 -6 10 -25 14 -25 6z"/>
<path d="M5705 560 c-4 -6 -10 -8 -15 -5 -4 3 -7 -2 -6 -10 1 -8 4 -16 7 -17
2 -2 3 -1 1 1 -1 2 5 13 15 23 9 10 13 18 10 18 -3 0 -9 -5 -12 -10z"/>
<path d="M5710 536 c0 -2 8 -10 18 -17 15 -13 16 -12 3 4 -13 16 -21 21 -21
13z"/>
<path d="M5776 399 c4 -8 30 -6 38 2 3 3 -5 5 -19 5 -13 0 -22 -3 -19 -7z"/>
<path d="M5857 399 c7 -7 15 -10 18 -7 3 3 -2 9 -12 12 -14 6 -15 5 -6 -5z"/>
<path d="M5453 365 c0 -7 6 -11 14 -8 7 3 13 6 13 8 0 2 -6 5 -13 8 -8 3 -14
-1 -14 -8z"/>
</g>
</svg>
